<svg width="834" height="614" viewBox="0 0 834 614" fill="none" xmlns="http://www.w3.org/2000/svg">
<g opacity="0.05" clip-path="url(#clip0_268_5693)">
<path d="M323.372 541.563C321.221 529.487 305.807 521.127 292.185 524.533M323.372 541.563C324.448 545.588 317.637 546.207 316.92 542.182C315.844 535.37 308.316 530.416 300.788 529.797L292.185 524.533M323.372 541.563L323.618 541.519C323.618 541.515 323.617 541.512 323.616 541.509M323.372 541.563L323.614 541.498C323.615 541.502 323.616 541.505 323.616 541.509M292.185 524.533C287.814 525.634 284.46 528.174 281.138 530.69C277.921 533.127 274.732 535.542 270.676 536.609L292.185 524.533ZM323.616 541.509C322.521 535.382 318.07 530.221 312.2 527.023C306.325 523.822 299.002 522.57 292.124 524.29L292.124 524.29C287.766 525.388 284.412 527.897 281.145 530.371L281.003 530.479C277.774 532.924 274.62 535.313 270.613 536.367L270.607 536.368C267.996 537.12 266.093 536.598 264.299 535.615C263.492 535.173 262.712 534.641 261.894 534.083C261.794 534.014 261.693 533.945 261.592 533.876C260.67 533.249 259.699 532.605 258.612 532.056M323.616 541.509C323.901 542.583 323.663 543.462 323.105 544.09C322.555 544.71 321.716 545.059 320.841 545.14C319.101 545.303 317.062 544.408 316.674 542.226L316.673 542.221C316.148 538.897 314.046 536.008 311.126 533.869C308.207 531.729 304.487 530.352 300.768 530.046L300.763 530.045C296.181 529.589 292.654 531.107 289.41 533.256C287.997 534.193 286.642 535.246 285.276 536.308C285.07 536.467 284.865 536.627 284.659 536.787C283.085 538.006 281.485 539.213 279.768 540.228M258.612 532.056L279.638 540.015M258.612 532.056C257.863 531.574 256.716 531.161 255.449 530.758C254.985 530.61 254.503 530.464 254.015 530.315C253.296 530.096 252.562 529.872 251.843 529.633C256.432 527.999 260.369 524.567 262.645 520.636C263.823 518.757 264.681 516.708 265.433 514.612C265.793 513.611 266.13 512.596 266.465 511.584L266.512 511.442C266.864 510.382 267.216 509.326 267.595 508.285C269.113 504.121 271.061 500.234 275.118 497.492C275.515 497.225 275.914 496.962 276.312 496.7C279.112 494.853 281.835 493.057 283.437 490.292C285.756 486.57 284.785 483.087 283.792 479.523C283.682 479.129 283.572 478.734 283.466 478.337C282.077 472.092 284.635 465.833 290.131 461.969C291.105 463.712 292.639 465.15 294.482 466.19C298.037 468.198 302.775 468.75 306.97 467.174L306.97 467.175L306.981 467.17C307.307 467.029 307.614 466.873 307.903 466.726C307.941 466.707 307.978 466.688 308.015 466.67C308.34 466.505 308.642 466.356 308.941 466.246C309.528 466.028 310.086 465.964 310.726 466.241C310.876 466.305 311.058 466.425 311.266 466.586C311.473 466.746 311.692 466.935 311.917 467.129L311.92 467.132C312.142 467.324 312.37 467.521 312.588 467.69C312.802 467.855 313.021 468.004 313.227 468.095C315.029 469.027 317.247 469.683 319.133 469.041C320.068 468.876 320.812 468.47 321.528 468.045C321.622 467.99 321.715 467.934 321.808 467.878C322.436 467.501 323.058 467.128 323.812 466.867L323.826 466.862L323.839 466.856C325.373 466.12 326.824 466.26 328.313 466.752C329.06 466.999 329.81 467.332 330.584 467.685C330.676 467.728 330.77 467.771 330.863 467.813C331.545 468.126 332.244 468.446 332.962 468.722L332.961 468.722L332.969 468.725C336.592 469.976 341.329 470.301 344.996 468.401L344.998 468.399C347.404 467.121 348.436 465.267 348.669 463.214C348.9 461.182 348.346 458.971 347.626 456.949C346.913 454.855 346.213 452.721 345.507 450.568C342.672 441.923 339.738 432.973 335.422 425.021C333.256 420.968 330.371 417.541 326.77 414.43C326.321 413.964 325.85 413.518 325.383 413.077L325.381 413.075C324.91 412.629 324.444 412.188 324 411.729C323.115 410.811 322.332 409.831 321.811 408.634C321.352 407.442 321.16 406.251 320.968 405.057C320.941 404.887 320.914 404.717 320.885 404.546C320.661 403.189 320.387 401.834 319.645 400.553L319.646 400.552L319.639 400.543C317.816 397.708 314.906 395.511 311.642 394.255C310.489 393.703 309.149 393.265 307.807 392.826C307.253 392.645 306.7 392.464 306.158 392.275C304.279 391.618 302.534 390.859 301.322 389.663L301.316 389.657L301.31 389.651C300.293 388.773 299.958 387.832 299.872 386.801C299.829 386.278 299.85 385.732 299.884 385.152C299.89 385.05 299.896 384.947 299.903 384.842C299.932 384.359 299.963 383.855 299.963 383.338V383.322V383.305V383.289V383.273V383.256V383.24V383.224V383.207V383.191V383.174V383.158V383.142V383.125V383.109V383.092V383.076V383.06V383.043V383.027V383.01V382.994V382.977V382.961V382.944V382.928V382.911V382.895V382.878V382.862V382.845V382.829V382.812V382.796V382.779V382.762V382.746V382.729V382.713V382.696V382.68V382.663V382.646V382.63V382.613V382.597V382.58V382.563V382.547V382.53V382.513V382.497V382.48V382.463V382.447V382.43V382.413V382.397V382.38V382.363V382.347V382.33V382.313V382.297V382.28V382.263V382.246V382.23V382.213V382.196V382.179V382.163V382.146V382.129V382.112V382.095V382.079V382.062V382.045V382.028V382.012V381.995V381.978V381.961V381.944V381.927V381.911V381.894V381.877V381.86V381.843V381.826V381.809V381.793V381.776V381.759V381.742V381.725V381.708V381.691V381.674V381.658V381.641V381.624V381.607V381.59V381.573V381.556V381.539V381.522V381.505V381.488V381.471V381.454V381.437V381.42V381.404V381.387V381.37V381.353V381.336V381.319V381.302V381.285V381.268V381.251V381.234V381.217V381.2V381.183V381.166V381.149V381.132V381.115V381.098V381.081V381.064V381.046V381.029V381.012V380.995V380.978V380.961V380.944V380.927V380.91V380.893V380.876V380.859V380.842V380.825V380.808V380.791V380.773V380.756V380.739V380.722V380.705V380.688V380.671V380.654V380.637V380.62V380.602V380.585V380.568V380.551V380.534V380.517V380.5V380.483V380.465V380.448V380.431V380.414V380.397V380.38V380.363V380.345V380.328V380.311V380.294V380.277V380.26V380.242V380.225V380.208V380.191V380.174V380.157V380.139V380.122V380.105V380.088V380.071V380.054V380.036V380.019V380.002V379.985V379.968V379.95V379.933V379.916V379.899V379.882V379.864V379.847V379.83V379.813V379.796V379.778V379.761V379.744V379.727V379.71V379.692V379.675V379.658V379.641V379.623V379.606V379.589V379.572V379.555V379.537V379.52V379.503V379.486V379.468V379.451V379.434V379.417V379.4V379.382V379.365V379.348V379.331V379.313V379.296V379.279V379.262V379.244V379.227V379.21V379.193V379.176V379.158V379.141V379.124V379.107V379.089V379.072V379.055V379.038V379.02V379.003V378.986V378.969V378.951V378.934V378.917V378.9V378.883V378.865V378.848V378.831V378.814V378.796V378.779V378.762V378.745V378.727V378.71V378.693V378.676V378.659V378.641V378.624V378.607V378.59V378.572V378.555V378.538V378.521V378.503V378.486V378.469V378.452V378.435V378.417V378.4V378.383V378.366V378.348V378.331V378.314V378.297V378.28V378.262V378.245V378.228V378.211V378.194V378.176V378.159V378.142V378.125V378.108V378.09V378.073V378.056V378.039V378.022V378.004V377.987V377.97V377.953V377.936V377.919V377.901V377.884V377.867V377.85V377.833V377.815V377.798V377.781V377.764V377.747V377.73V377.712V377.695V377.678V377.661V377.644V377.627V377.61V377.592V377.575V377.558V377.541V377.524V377.507V377.49V377.472V377.455V377.438V377.421V377.404V377.387V377.37V377.353V377.336V377.318V377.301V377.284V377.267V377.25V377.233V377.216V377.199V377.182V377.165V377.148V377.13V377.113V377.096V377.079V377.062V377.045V377.028V377.011V376.994V376.977V376.96V376.943V376.926V376.909V376.892V376.875V376.858V376.841V376.824V376.807V376.79V376.773V376.756V376.739V376.722V376.705V376.688V376.671V376.654V376.637V376.62V376.603V376.586V376.569V376.552V376.535V376.518V376.501V376.484V376.467V376.45V376.433V376.417V376.4V376.383V376.366V376.349V376.332V376.315V376.298V376.281V376.264V376.248V376.231V376.214V376.197V376.18V376.163V376.146V376.129V376.113V376.096V376.079V376.062V376.045V376.029V376.012V375.995V375.978V375.961V375.944V375.928V375.911V375.894V375.877V375.861V375.844V375.827V375.81V375.794V375.777V375.76V375.743V375.727V375.71V375.693V375.676V375.66V375.643V375.626V375.61V375.593V375.576V375.56V375.543V375.526V375.51V375.493V375.476V375.46V375.443V375.426V375.41V375.393V375.377V375.36V375.343V375.327V375.31V375.294V375.277V375.26V375.244V375.227V375.211V375.194V375.178V375.161V375.145V375.128V375.112V375.095V375.079V375.062V375.046V375.029V375.013V374.996V374.98V374.963V374.947V374.93V374.914V374.898V374.881V374.865V374.848V374.832V374.816V374.799V374.783V374.766V374.75V374.734V374.717V374.701V374.685V374.668V374.66L299.962 374.651C299.603 369.381 298.885 363.472 297.082 358.177L297.08 358.172C296.164 355.64 294.688 354.039 292.743 353.079C290.81 352.125 288.435 351.815 285.732 351.815C283.14 351.815 281.5 350.629 280.094 349.035C279.511 348.374 278.973 347.648 278.423 346.907C278.306 346.748 278.188 346.588 278.068 346.429C277.396 345.529 276.692 344.626 275.871 343.837C272.249 340.085 266.414 337.539 260.909 340.064C260.326 340.237 259.76 340.65 259.275 341.031C259.181 341.104 259.091 341.176 259.004 341.246C258.855 341.364 258.715 341.477 258.578 341.579C258.362 341.742 258.18 341.862 258.03 341.927L257.954 341.96L257.913 342.031C257.746 342.32 257.614 342.399 257.539 342.415C257.472 342.43 257.372 342.41 257.217 342.277C256.954 342.049 256.684 341.857 256.443 341.686C256.347 341.618 256.256 341.553 256.172 341.491C255.864 341.263 255.63 341.056 255.478 340.793L255.457 340.756L255.425 340.729C253.624 339.173 251.452 337.607 249.268 336.664C247.192 335.728 244.917 334.989 242.603 334.287C242.048 334.119 241.491 333.953 240.933 333.787C239.162 333.259 237.389 332.73 235.673 332.128C231.16 330.546 227.105 328.479 224.642 324.681L224.615 324.639L224.575 324.611C223.643 323.967 222.692 323.711 221.997 323.754C221.655 323.775 221.34 323.872 221.134 324.071C221.027 324.173 220.952 324.302 220.923 324.452C220.896 324.591 220.912 324.734 220.961 324.875M258.612 532.056L220.961 324.875M279.768 540.228C279.769 540.227 279.77 540.227 279.771 540.226L279.638 540.015M279.768 540.228C279.767 540.229 279.766 540.229 279.765 540.23L279.638 540.015M279.768 540.228C275.794 542.724 271.805 543.981 267.895 543.942C263.985 543.902 260.172 542.566 256.552 539.91M279.638 540.015C271.752 544.969 263.865 544.969 256.696 539.705M256.552 539.91C256.553 539.911 256.555 539.912 256.556 539.912L256.696 539.705M256.552 539.91C254.965 538.845 252.997 538.022 250.922 537.239C250.399 537.042 249.869 536.847 249.338 536.652C247.767 536.075 246.181 535.492 244.717 534.823C242.756 533.928 240.982 532.865 239.721 531.422C238.453 529.972 237.714 528.151 237.805 525.766M256.552 539.91C256.55 539.909 256.549 539.908 256.548 539.906L256.696 539.705M256.696 539.705L237.805 525.766M237.805 525.766C237.805 525.768 237.805 525.77 237.805 525.771H238.055L237.805 525.762C237.805 525.763 237.805 525.765 237.805 525.766ZM237.805 525.766C237.808 523.1 240.497 521.166 243.485 521.811L243.488 521.812C246.122 522.419 248.231 522.056 249.953 521.092C251.682 520.125 253.043 518.54 254.15 516.665C255.821 513.836 256.885 510.41 257.772 507.552C258.065 506.606 258.34 505.722 258.61 504.944L258.613 504.936L258.613 504.936C260.048 501.218 261.496 497.772 264.399 494.638L264.406 494.629L264.406 494.63C265.68 493.373 267.131 492.355 268.612 491.386C268.973 491.15 269.334 490.918 269.695 490.685C270.826 489.958 271.954 489.232 273.033 488.417M237.805 525.766L273.185 488.615M273.033 488.417C273.032 488.417 273.032 488.418 273.031 488.418L273.185 488.615M273.033 488.417C273.034 488.416 273.034 488.416 273.035 488.415L273.185 488.615M273.033 488.417C273.985 487.669 274.536 486.875 274.832 486.049C275.129 485.219 275.175 484.34 275.087 483.413C275.002 482.505 274.79 481.566 274.57 480.594L274.555 480.527C274.331 479.538 274.104 478.517 274.012 477.492M273.185 488.615C276.118 486.312 275.482 483.495 274.815 480.547C274.586 479.531 274.353 478.499 274.261 477.468M274.012 477.492C274.012 477.493 274.012 477.493 274.012 477.494L274.261 477.468M274.012 477.492C273.651 474.056 274.011 470.606 275.465 467.462M274.012 477.492C274.012 477.491 274.012 477.491 274.012 477.49L274.261 477.468M274.261 477.468L275.465 467.462M275.465 467.462C275.464 467.464 275.463 467.467 275.462 467.469L275.695 467.559L275.468 467.454C275.467 467.457 275.466 467.459 275.465 467.462ZM275.465 467.462C278.006 460.883 283.802 455.889 291.015 453.085M275.465 467.462L307.599 458.89M291.015 453.085C291.013 453.085 291.012 453.086 291.01 453.087L291.109 453.316L291.019 453.083C291.017 453.084 291.016 453.084 291.015 453.085ZM291.015 453.085C292.156 452.593 293.746 452.598 295.008 453.083C295.643 453.327 296.213 453.699 296.602 454.21C296.994 454.726 297.191 455.373 297.093 456.135L297.092 456.139C296.921 457.32 297.179 458.412 297.806 459.242C298.432 460.071 299.441 460.66 300.815 460.809L300.824 460.809L300.824 460.81C301.824 460.954 302.931 460.595 304.095 460.092C304.433 459.946 304.776 459.787 305.122 459.628C305.935 459.252 306.756 458.873 307.524 458.651M307.524 458.651C307.522 458.652 307.52 458.653 307.518 458.653L307.599 458.89M307.524 458.651C307.526 458.651 307.528 458.65 307.53 458.649L307.599 458.89M307.524 458.651C309.365 458.017 311.582 458.013 313.442 458.973M307.599 458.89C309.392 458.27 311.543 458.27 313.335 459.199M313.442 458.973C313.439 458.972 313.437 458.971 313.434 458.97L313.335 459.199M313.442 458.973C314.002 459.216 314.444 459.519 314.827 459.814C314.981 459.934 315.121 460.048 315.253 460.156C315.46 460.325 315.65 460.479 315.852 460.619C316.169 460.838 316.48 460.991 316.847 461.042C317.215 461.092 317.664 461.045 318.261 460.825M313.442 458.973C313.445 458.975 313.447 458.976 313.45 458.977L313.335 459.199M313.335 459.199L318.261 460.825M318.261 460.825C318.259 460.826 318.257 460.827 318.254 460.828L318.354 461.057L318.267 460.823C318.265 460.823 318.263 460.824 318.261 460.825ZM318.261 460.825C318.787 460.597 319.271 460.35 319.745 460.105C319.793 460.08 319.841 460.055 319.889 460.03C320.313 459.81 320.733 459.592 321.163 459.397C322.125 458.962 323.147 458.64 324.448 458.64C327.358 458.64 329.541 459.27 332.062 460.203L332.075 460.208L332.075 460.208C332.197 460.261 332.331 460.32 332.475 460.383C333.188 460.697 334.15 461.12 335.144 461.438C335.74 461.629 336.339 461.779 336.895 461.844C337.452 461.91 337.948 461.887 338.347 461.75C338.757 461.608 338.933 461.431 339.006 461.265C339.083 461.092 339.078 460.871 338.995 460.585C338.912 460.299 338.765 459.989 338.606 459.655L338.601 459.644C338.449 459.327 338.287 458.986 338.191 458.66M318.261 460.825L295.053 395.414M338.191 458.66L338.195 458.67L338.428 458.58L338.188 458.649C338.189 458.653 338.19 458.657 338.191 458.66ZM338.191 458.66L337.657 457.277L337.12 455.883L337.117 455.875L337.117 455.875C336.311 453.554 335.55 451.161 334.781 448.738C332.459 441.43 330.051 433.847 326.026 427.125L326.024 427.122C324.786 424.984 323.191 423.222 321.45 421.525C320.777 420.869 320.077 420.218 319.367 419.559C318.254 418.524 317.117 417.468 316.023 416.333L316.021 416.332C313.225 413.38 312.542 410.638 311.74 407.417C311.601 406.859 311.459 406.287 311.301 405.697L311.299 405.688L311.299 405.688C310.614 402.73 307.87 401.144 304.55 399.826C303.725 399.499 302.872 399.191 302.013 398.882L301.853 398.825C301.049 398.536 300.24 398.246 299.454 397.94C297.781 397.291 296.189 396.566 294.907 395.617M294.907 395.617C294.908 395.618 294.909 395.619 294.91 395.62L295.053 395.414M294.907 395.617C294.906 395.617 294.905 395.616 294.904 395.615L295.053 395.414M294.907 395.617C291.253 393.091 289.786 389.609 289.784 385.824M295.053 395.414C291.468 392.937 290.034 389.531 290.034 385.815M289.784 385.824C289.784 385.827 289.784 385.83 289.785 385.833L290.034 385.815M289.784 385.824C289.64 383.833 289.612 381.84 289.583 379.836C289.576 379.341 289.569 378.846 289.56 378.35C289.515 375.836 289.426 373.293 289.069 370.677L289.069 370.675C288.769 368.339 288.215 366.225 287.617 363.94C287.507 363.52 287.395 363.093 287.283 362.658M289.784 385.824C289.784 385.821 289.784 385.818 289.784 385.815H290.034M290.034 385.815C289.89 383.829 289.862 381.842 289.833 379.835C289.79 376.838 289.746 373.796 289.317 370.643L287.283 362.658M287.283 362.658C287.284 362.659 287.284 362.661 287.284 362.662L287.525 362.592L287.282 362.655C287.283 362.656 287.283 362.657 287.283 362.658ZM287.283 362.658C287.229 362.469 287.181 362.288 287.137 362.124C287.11 362.021 287.084 361.925 287.06 361.837C286.993 361.598 286.93 361.401 286.85 361.227C286.696 360.896 286.469 360.624 285.979 360.34M287.283 362.658L263.507 348.659M285.979 360.34C285.983 360.341 285.987 360.343 285.992 360.345L286.091 360.115L285.966 360.332C285.97 360.335 285.975 360.337 285.979 360.34ZM285.979 360.34C285.841 360.283 285.635 360.248 285.372 360.234C285.106 360.221 284.803 360.23 284.493 360.249C284.234 360.265 283.976 360.287 283.733 360.309C283.685 360.313 283.638 360.317 283.592 360.321C283.314 360.345 283.056 360.365 282.864 360.365H282.855L282.846 360.365C278.482 360.051 274.834 358.164 272.28 355.015M272.28 355.015C272.281 355.017 272.283 355.019 272.285 355.021L272.469 354.851L272.274 355.009C272.276 355.011 272.278 355.013 272.28 355.015ZM272.28 355.015C271.684 354.371 271.148 353.622 270.61 352.869C270.49 352.701 270.37 352.533 270.25 352.366C269.579 351.439 268.876 350.531 268.003 349.777L267.995 349.769L267.987 349.761C267.083 348.824 266.504 348.341 265.915 348.206C265.344 348.074 264.702 348.259 263.634 348.874M263.634 348.874C263.634 348.874 263.635 348.873 263.636 348.873L263.507 348.659M263.634 348.874C263.633 348.875 263.632 348.875 263.631 348.875L263.507 348.659M263.634 348.874C260.009 351.065 255.974 352.03 251.929 350.123C249.923 349.178 248.287 347.842 246.8 346.441C246.201 345.876 245.631 345.307 245.072 344.748C244.231 343.907 243.412 343.089 242.551 342.346C240 340.142 237.452 338.93 234.611 337.579C234.294 337.428 233.974 337.276 233.649 337.12M263.507 348.659C259.922 350.826 255.979 351.755 252.035 349.897C249.281 348.6 247.227 346.547 245.261 344.583C244.412 343.735 243.58 342.903 242.715 342.156C240.137 339.929 237.559 338.704 234.72 337.354C234.401 337.202 234.079 337.049 233.753 336.893M233.649 337.12C233.651 337.121 233.652 337.121 233.654 337.122L233.753 336.893M233.649 337.12C230.778 335.88 227.795 334.398 225.438 332.44C223.083 330.484 221.337 328.04 220.961 324.875M233.649 337.12C233.648 337.119 233.646 337.119 233.645 337.118L233.753 336.893M233.753 336.893L220.961 324.875" fill="white" stroke="white" stroke-width="0.5"/>
<path d="M322.532 518.071C323.257 526.006 323.62 533.94 323.62 541.874C323.62 543.133 322.574 543.816 321.564 543.941C321.053 544.004 320.519 543.932 320.08 543.707C319.637 543.48 319.29 543.093 319.182 542.544C316.673 531.395 314.52 520.238 313.443 508.769C313.246 507.061 314.445 505.895 315.897 505.409C317.346 504.925 319.148 505.075 320.307 506.076L320.316 506.084L320.316 506.084C322.106 507.785 323.896 509.409 325.689 511.035L325.69 511.036C326.275 511.566 326.86 512.097 327.446 512.63C330.025 508.295 332.347 503.824 334.253 499.355L334.259 499.341L334.267 499.328C335.786 496.703 339.581 496.37 341.487 498.675L341.488 498.677C342.082 499.409 342.724 499.76 343.387 499.875C344.057 499.99 344.772 499.868 345.512 499.605C346.252 499.342 346.997 498.945 347.724 498.53C347.919 498.418 348.114 498.305 348.307 498.192C348.823 497.892 349.324 497.6 349.787 497.371L349.798 497.366L349.798 497.366C351.966 496.43 354.137 495.804 356.31 495.491C358.836 495.024 361.449 494.869 364.046 494.753C364.413 494.736 364.78 494.721 365.146 494.705C367.378 494.61 369.589 494.516 371.734 494.251L371.736 494.251C374.407 493.943 377.145 493.253 379.299 491.963C381.445 490.676 383 488.801 383.347 486.107L383.347 486.103C384.035 481.347 379.55 477.095 373.902 476.79L373.887 476.789L373.873 476.787C372.96 476.629 372.205 476.388 371.582 475.974C370.954 475.558 370.478 474.977 370.104 474.168L370.099 474.158L370.1 474.158C368.078 469.237 369.84 464.878 373.196 461.313C376.546 457.754 381.511 454.951 386.008 453.087C386.008 453.087 386.008 453.087 386.008 453.087L386.104 453.318C397.217 448.673 409.405 446.505 421.951 447.434L322.532 518.071ZM322.532 518.071C323.471 518.927 324.41 519.798 325.349 520.69L325.349 520.69L325.358 520.698C326.137 521.371 327.374 521.69 328.541 521.61C329.708 521.529 330.879 521.042 331.473 520.015L331.476 520.01C334.185 515.331 336.897 510.645 339.301 505.957C340.666 506.514 342.175 506.825 343.804 506.825C346.193 506.825 348.118 506.03 349.923 505.094C350.382 504.856 350.831 504.611 351.278 504.367C352.599 503.644 353.896 502.936 355.348 502.479C359.084 501.357 362.97 501.261 366.909 501.163C367.275 501.154 367.641 501.145 368.007 501.135C372.309 501.019 376.653 500.788 380.822 499.065L380.822 499.065L380.83 499.062C387.728 495.926 391.749 489.013 390.652 482.383L390.652 482.383L390.651 482.374C389.394 476.135 383.841 471.796 377.265 470.296C377.242 469.233 377.541 468.221 378.082 467.258C378.98 465.66 380.547 464.196 382.437 462.89C386.215 460.279 391.204 458.353 394.426 457.271C403.36 454.493 412.649 453.26 421.935 453.877C423.157 453.958 424.102 453.613 424.743 453.017C425.382 452.423 425.697 451.599 425.697 450.763C425.697 449.082 424.429 447.349 421.969 447.185L322.532 518.071Z" fill="white" stroke="white" stroke-width="0.5"/>
<path d="M437.206 467.433C437.203 467.436 437.2 467.438 437.197 467.441C436.788 467.392 436.375 467.349 435.96 467.312L435.639 467.283L435.691 467.602L435.753 467.975C434.693 468.303 433.938 468.859 433.479 469.535C433.004 470.235 432.858 471.048 433.004 471.826C433.296 473.384 434.746 474.769 436.992 474.932C443.043 475.547 448.568 477.7 454.029 480.136C455.174 480.647 456.317 481.17 457.462 481.695C461.766 483.666 466.092 485.648 470.639 486.998L470.641 486.999C477.672 489.023 484.787 489.021 491.911 488.866C492.5 488.853 493.089 488.84 493.678 488.826C500.224 488.672 506.773 488.518 513.321 489.791L513.322 489.791C516.54 490.408 520.105 491.333 522.949 492.561L522.957 492.565L522.966 492.568C523.858 492.876 524.661 493.184 525.468 493.494L525.469 493.495C526.262 493.799 527.059 494.105 527.941 494.411C528.039 494.491 528.17 494.584 528.322 494.679C528.141 494.759 527.959 494.845 527.778 494.932C527.617 495.011 527.459 495.089 527.305 495.166C526.751 495.441 526.246 495.692 525.846 495.807L525.831 495.812L525.817 495.818C525.479 495.964 525.117 496.111 524.741 496.264C523.558 496.746 522.241 497.282 521.137 497.994C519.104 498.873 517.068 499.908 515.167 500.875C514.385 501.272 513.626 501.658 512.9 502.016L512.9 502.016L512.891 502.021C502.123 507.912 491.711 515.043 482.733 523.108C482.273 523.505 481.788 523.914 481.288 524.335C479.852 525.545 478.298 526.854 476.896 528.267C475.003 530.174 473.357 532.299 472.622 534.678L472.621 534.683C472.066 536.599 472.249 538.68 473.18 540.369C474.114 542.064 475.796 543.35 478.205 543.67L478.208 543.67C480.773 543.987 483.416 543.353 486.061 542.578C486.557 542.433 487.053 542.283 487.549 542.133C489.713 541.478 491.875 540.823 494.04 540.574L494.042 540.574C496.527 540.267 499.305 540.584 501.017 542.063C501.891 542.818 502.593 543.726 503.313 544.659L503.32 544.668C504.032 545.591 504.762 546.536 505.678 547.327L505.688 547.336L505.699 547.343C507.504 548.591 509.349 549.555 511.577 549.555C512.493 549.555 513.382 549.437 514.217 549.316C514.298 549.304 514.378 549.292 514.458 549.28C515.207 549.171 515.905 549.069 516.557 549.052C517.275 549.033 517.912 549.119 518.472 549.398C519.028 549.676 519.531 550.156 519.959 550.97L519.964 550.98L519.971 550.99C521.555 553.422 522.354 556.399 522.71 559.475C523.066 562.548 522.977 565.704 522.798 568.485C522.65 570.595 522.318 572.771 521.981 574.976C521.912 575.427 521.843 575.879 521.776 576.332C521.378 578.994 521.028 581.682 521.05 584.296C521.073 586.913 521.469 589.466 522.569 591.859C523.67 594.254 525.47 596.474 528.282 598.433C538.069 605.321 551.802 603.426 561.528 597.826C566.429 595.087 570.411 591.547 574.371 588.028C575.358 587.15 576.343 586.274 577.341 585.412L577.341 585.412L577.348 585.407C580.367 582.612 583.506 580.051 586.625 577.506C588.688 575.823 590.742 574.147 592.748 572.415C593.335 571.988 593.64 571.425 593.704 570.832C593.767 570.242 593.589 569.642 593.248 569.137C592.564 568.125 591.2 567.454 589.652 567.954C583.687 569.672 578.995 573.027 574.682 576.83C572.957 578.351 571.289 579.947 569.625 581.539C569.21 581.937 568.795 582.334 568.38 582.729C566.297 584.712 564.198 586.66 561.967 588.433C558.226 591.356 552.705 594.354 547.105 595.506C541.507 596.657 535.876 595.957 531.835 591.556L531.835 591.556C529.743 589.297 529.123 586.505 529.123 583.559C529.123 581.395 529.456 579.177 529.776 577.042C529.893 576.26 530.009 575.489 530.106 574.735C531.184 569.147 531.546 563.852 530.464 558.242C529.748 553.606 528.665 547.95 524.653 544.169L524.653 544.169L524.645 544.162C523.17 542.888 520.973 541.942 518.782 541.626L518.782 541.626L518.77 541.625C517.937 541.545 517.11 541.606 516.307 541.703C515.957 541.746 515.62 541.794 515.288 541.842C514.843 541.905 514.409 541.968 513.971 542.012C512.473 542.164 511.131 542.081 509.958 541.074C509.252 540.311 508.632 539.546 508.007 538.775L508.005 538.772C507.379 538 506.747 537.22 506.024 536.44L506.015 536.43L506.004 536.421C504.167 534.834 501.611 533.893 499.09 533.271L499.083 533.269L499.075 533.268C494.002 532.329 488.939 533.27 483.918 534.509C483.916 534.509 483.915 534.509 483.914 534.51L483.911 534.51C482.988 534.709 482.054 534.911 481.115 535.199C481.339 534.848 481.53 534.518 481.669 534.279C482.726 533.065 483.784 532.15 485.213 530.916L485.213 530.916L485.22 530.909C489.516 526.89 494.17 522.87 498.824 519.159C508.483 512.052 519.22 506.178 530.68 500.919L530.682 500.918C532.66 499.986 534.944 498.651 536.281 497.019C536.952 496.199 537.399 495.286 537.43 494.299C537.46 493.307 537.068 492.28 536.141 491.238C534.485 489.332 531.658 487.844 528.604 486.68C525.542 485.513 522.214 484.658 519.523 484.038C512.333 482.176 504.785 481.245 497.237 481.245C495.26 481.245 493.284 481.322 491.312 481.404C491.181 481.41 491.05 481.415 490.919 481.421C489.078 481.498 487.241 481.575 485.405 481.593C481.473 481.632 477.556 481.4 473.644 480.325L473.644 480.325L473.64 480.324C468.133 478.909 463.125 476.639 458.125 474.372C457.127 473.92 456.13 473.467 455.128 473.022C451.48 471.4 447.789 469.872 443.878 468.783C444.895 466.532 444.872 463.93 443.317 461.541L443.316 461.54C443.229 461.408 443.137 461.279 443.042 461.153C448.224 461.797 453.406 462.401 458.5 462.856L458.5 462.856C462.113 463.168 465.851 462.627 468.336 461.037C469.583 460.239 470.524 459.17 470.96 457.806C471.395 456.442 471.317 454.815 470.585 452.918C469.3 449.588 466.551 447.225 463.196 445.698C459.841 444.17 455.861 443.469 452.069 443.469C443.986 443.469 435.897 444.517 427.828 445.563C425.142 445.91 422.458 446.258 419.778 446.567L419.735 446.572L419.696 446.591C418.324 447.268 417.668 448.933 417.81 450.362C417.882 451.084 418.158 451.774 418.677 452.265C419.2 452.761 419.946 453.03 420.903 452.947C421.499 452.896 422.097 452.844 422.698 452.793C429.32 452.223 436.199 451.631 442.778 450.779C442.936 450.763 443.096 450.747 443.256 450.73C446.19 450.431 449.475 450.095 452.638 450.277C455.974 450.469 459.14 451.237 461.592 453.203L461.592 453.203L461.602 453.211C462.126 453.588 462.603 454.02 462.963 454.446C463.328 454.879 463.552 455.283 463.608 455.605C463.635 455.762 463.621 455.888 463.575 455.99C463.53 456.09 463.445 456.188 463.291 456.272C462.971 456.449 462.383 456.551 461.411 456.475C459.806 456.32 458.199 456.089 456.586 455.857L456.583 455.856C454.973 455.625 453.356 455.392 451.738 455.237C447.975 454.772 444.122 454.308 440.27 453.844L440.27 453.843C436.416 453.379 432.563 452.915 428.799 452.45C427.499 452.29 426.098 452.528 425.057 453.141C424.008 453.759 423.307 454.775 423.502 456.135C423.874 459.661 426.114 461.887 429.745 463.455L429.759 463.462L429.775 463.466C430.308 463.62 433.248 464.544 435.334 465.579C435.854 465.837 436.314 466.099 436.668 466.353C437.03 466.613 437.247 466.843 437.328 467.028C437.365 467.113 437.368 467.177 437.355 467.228C437.342 467.282 437.304 467.351 437.206 467.433Z" fill="white" stroke="white" stroke-width="0.5"/>
<path d="M592.368 573.671L592.347 573.682C591.361 574.193 590.171 574.027 589.419 573.334C588.647 572.623 588.385 571.41 589.142 569.939L589.152 569.919L589.166 569.901C592.098 566.103 596.038 565.085 600.23 564.696C601.478 564.58 602.765 564.519 604.055 564.458C604.918 564.417 605.783 564.376 606.638 564.318C608.787 564.173 610.916 563.923 612.949 563.313C617.185 561.94 620.282 558.966 623.376 555.828C623.567 555.635 623.758 555.441 623.949 555.246C626.844 552.301 629.798 549.296 633.713 547.532L633.723 547.527L633.723 547.528C638.421 545.655 643.485 545.028 648.551 545.964C651.094 546.279 653.627 547.219 655.782 548.15L655.795 548.155L655.807 548.162C656.898 548.791 657.896 549.574 658.877 550.344L658.884 550.35C659.871 551.125 660.841 551.886 661.896 552.495C662.739 552.93 663.877 553.102 665.19 553.083C666.501 553.064 667.963 552.855 669.433 552.547C672.373 551.931 675.317 550.93 677.11 550.31L677.117 550.308L677.118 550.308C679.605 549.54 681.441 548.551 682.699 547.202C683.952 545.859 684.653 544.135 684.828 541.858L684.829 541.853C685.173 538.282 686.508 534.081 689.831 531.766C688.983 531.601 688.128 531.599 687.246 531.599C685.102 531.908 682.977 532.215 680.854 532.825C678.376 533.744 676.254 534.967 674.128 536.802L674.115 536.813L674.101 536.823C673.747 537.052 673.392 537.301 673.028 537.558L672.974 537.596C672.628 537.84 672.273 538.09 671.907 538.331C671.138 538.839 670.311 539.316 669.386 539.636C665.664 540.922 662.332 538.984 660.499 536.45L660.496 536.446C660.217 536.044 659.986 535.604 659.769 535.191L659.768 535.189C659.548 534.77 659.343 534.38 659.108 534.048C658.874 533.718 658.622 533.462 658.317 533.303C658.017 533.146 657.645 533.074 657.152 533.145C656.155 533.288 655.217 533.94 654.377 534.742C653.754 535.337 653.209 535.989 652.744 536.545C652.582 536.74 652.429 536.922 652.287 537.086L652.28 537.094L652.272 537.102C649.375 539.917 645.737 542.121 641.002 542.436L641.001 542.436C631.194 543.063 623.594 536.162 618.218 530.281C611.742 523.444 607.069 515.679 603.476 507.61C601.317 502.947 599.876 498.282 599.155 493.304C599.079 492.877 598.999 492.443 598.917 492.002C598.617 490.373 598.3 488.656 598.122 486.942C597.897 484.761 597.894 482.561 598.442 480.508C598.996 478.121 600.289 476.452 601.977 475.072C603.367 473.936 605.039 472.988 606.786 471.996C607.148 471.791 607.514 471.584 607.88 471.372L607.888 471.368L607.888 471.368C610.215 470.132 612.542 468.817 614.873 467.501L614.875 467.5C617.202 466.185 619.533 464.869 621.865 463.629C626.704 460.843 631.543 458.134 636.381 455.425L636.382 455.425C641.221 452.716 646.059 450.007 650.896 447.222C651.79 446.687 652.673 446.139 653.556 445.592C657.247 443.302 660.92 441.025 665.292 439.766L665.302 439.763L665.302 439.763L665.324 439.758C667.813 439.144 670.355 438.516 672.905 438.827C674.358 438.829 675.718 439.064 677.011 439.296L677.132 439.317C678.393 439.543 679.586 439.756 680.776 439.756C683.054 439.756 685.255 438.999 687.491 438.072C688.011 437.857 688.534 437.631 689.059 437.405C690.78 436.664 692.533 435.908 694.334 435.43L694.343 435.427L694.353 435.425C698.832 434.596 701.912 435.233 705.767 436.031C706.278 436.137 706.802 436.245 707.346 436.354C709.411 436.649 711.047 435.984 712.488 434.928C713.545 434.153 714.479 433.184 715.398 432.23C715.748 431.867 716.096 431.506 716.448 431.158L716.454 431.152L716.46 431.147L716.475 431.134C718.975 428.975 721.512 426.784 724.779 425.529L724.787 425.526L724.795 425.524C727.02 424.838 729.314 424.573 731.59 424.31C731.909 424.273 732.228 424.236 732.546 424.199C735.142 423.889 737.708 423.505 740.18 422.438C742.14 421.515 744.012 420.437 745.894 419.353L745.898 419.351C747.778 418.269 749.667 417.181 751.648 416.247L751.649 416.247C756.345 414.063 761.047 413.125 766.109 413.437L766.113 413.438C766.805 413.492 767.587 413.584 768.419 413.683C768.778 413.725 769.147 413.769 769.521 413.811C770.768 413.951 772.092 414.076 773.401 414.095C776.031 414.133 778.55 413.744 780.269 412.259C781.282 411.384 781.714 410.212 781.934 408.923C782.044 408.278 782.099 407.611 782.149 406.943C782.154 406.881 782.159 406.819 782.163 406.757C782.208 406.155 782.253 405.552 782.336 404.981L782.337 404.976L782.875 401.725L783.412 398.474L783.414 398.466L783.415 398.458C784.493 393.803 785.932 389.139 788.095 384.781M592.368 573.671L788.319 384.891M592.368 573.671L592.386 573.657C594.117 572.311 596.115 571.929 598.237 571.929C599.298 571.929 600.385 572.025 601.481 572.141C601.762 572.171 602.044 572.202 602.326 572.233C603.141 572.323 603.958 572.413 604.761 572.471C609.068 572.781 613.417 572.785 617.415 571.216M592.368 573.671L617.415 571.216M788.095 384.781C788.095 384.78 788.095 384.78 788.095 384.78L788.319 384.891M788.095 384.781C788.094 384.781 788.094 384.782 788.094 384.782L788.319 384.891M788.095 384.781C789.9 381.038 792.445 377.573 796.823 375.682L796.833 375.677L796.844 375.674C798.017 375.284 799.166 374.973 800.281 374.678C800.404 374.645 800.527 374.612 800.65 374.58C801.636 374.32 802.594 374.067 803.525 373.776C805.614 373.123 807.55 372.285 809.306 370.768L809.316 370.759L809.316 370.759C810.268 370.024 811.216 369.242 812.182 368.447C812.95 367.814 813.729 367.172 814.529 366.537C816.32 365.117 818.182 363.76 820.152 362.724C824.104 360.645 828.491 359.852 833.598 362.373L833.606 362.377L833.606 362.377C834.37 362.789 834.825 363.34 835.004 363.948C835.183 364.554 835.077 365.183 834.783 365.734C834.198 366.828 832.847 367.656 831.309 367.49L831.301 367.489L831.301 367.489C828.161 367.037 825.447 368.163 823.009 369.847C821.328 371.009 819.803 372.417 818.366 373.743C817.709 374.35 817.071 374.94 816.444 375.481L816.436 375.488L816.435 375.488C812.098 378.923 808.119 380.482 802.727 382.034C799.578 382.941 797.654 384.901 796.334 387.258C795.149 389.373 794.457 391.795 793.809 394.063C793.732 394.334 793.655 394.603 793.578 394.869L793.576 394.876C792.158 399.285 791.643 403.495 791.129 407.691C790.997 408.772 790.865 409.852 790.718 410.934L790.716 410.943L790.716 410.943C789.802 416.157 786.59 419.084 782.355 420.618C778.138 422.145 772.899 422.297 767.872 421.987M788.319 384.891C790.111 381.175 792.621 377.769 796.923 375.911C798.216 375.481 799.483 375.147 800.714 374.822C803.916 373.976 806.88 373.194 809.469 370.957C810.419 370.223 811.377 369.434 812.348 368.634C818.337 363.7 824.85 358.334 833.487 362.597C836.355 364.145 834.204 367.551 831.336 367.241C825.889 366.457 821.719 370.307 818.18 373.575C817.527 374.178 816.895 374.761 816.28 375.292C811.979 378.698 808.035 380.246 802.658 381.794C796.551 383.553 794.94 389.194 793.569 393.994C793.491 394.265 793.415 394.534 793.338 394.799C791.912 399.234 791.393 403.473 790.88 407.671C790.748 408.749 790.616 409.825 790.47 410.9C788.678 421.118 777.923 422.357 767.886 421.737M767.872 421.987C767.873 421.987 767.873 421.987 767.874 421.987L767.886 421.737M767.872 421.987C761.477 421.68 757.578 422.903 752.233 425.673C751.802 425.92 751.375 426.169 750.949 426.416C747.135 428.631 743.46 430.765 738.909 431.889C737.264 432.295 735.602 432.505 733.996 432.708C733.144 432.816 732.307 432.922 731.496 433.054C729.136 433.438 726.945 434.049 725.023 435.558L725.014 435.565L725.005 435.571C723.596 436.484 722.449 437.626 721.281 438.79L721.273 438.798C720.114 439.953 718.933 441.13 717.478 442.073C714.219 444.262 710.572 445.529 706.549 444.898C705.752 444.783 704.902 444.583 704.035 444.38C703.719 444.305 703.4 444.231 703.081 444.159C701.876 443.889 700.643 443.662 699.417 443.662C697.663 443.662 695.911 444.295 694.319 444.871C694.009 444.983 693.705 445.092 693.409 445.195C692.886 445.4 692.362 445.612 691.836 445.824C688.419 447.202 684.913 448.616 681.134 448.616C679.687 448.616 678.355 448.499 677.086 448.363C676.768 448.329 676.455 448.294 676.145 448.259C675.214 448.155 674.314 448.054 673.411 447.997C671.019 447.843 668.642 447.996 665.822 449.214C660.817 451.53 656.076 454.234 651.374 457.019C650.27 457.673 649.169 458.331 648.066 458.989C644.473 461.137 640.87 463.289 637.163 465.306C634.655 466.698 632.238 468.09 629.818 469.483L629.817 469.484C627.398 470.877 624.978 472.271 622.467 473.665C621.005 474.506 619.374 475.315 617.725 476.132C616.941 476.52 616.154 476.911 615.378 477.308C612.961 478.545 610.654 479.85 608.886 481.377C608.137 482.023 607.708 482.968 607.506 484.11C607.305 485.252 607.336 486.57 607.492 487.933C607.704 489.795 608.142 491.697 608.515 493.317C608.689 494.075 608.849 494.772 608.966 495.375C610.041 499.4 611.112 503.404 612.894 507.405L612.895 507.408C616.465 515.735 622.18 523.756 629.323 530.235L629.33 530.241L629.33 530.241C630.753 531.624 632.794 533.309 635.049 534.455C637.308 535.602 639.743 536.19 641.982 535.447L641.991 535.444L641.991 535.444C644.063 534.847 645.454 533.356 646.844 531.729C646.956 531.598 647.067 531.467 647.178 531.336C648.447 529.841 649.764 528.289 651.628 527.409C655.277 525.52 660.396 525.507 663.713 528.048C665.192 529.009 665.933 530.29 666.645 531.518L666.653 531.533L666.687 531.592V531.659C666.687 531.658 666.687 531.658 666.687 531.659C666.688 531.663 666.69 531.681 666.704 531.718C666.718 531.761 666.742 531.813 666.773 531.877C666.836 532.003 666.921 532.151 667.012 532.308C667.06 532.392 667.111 532.478 667.158 532.563L667.318 532.426C668.263 530.824 670.282 529.493 672.422 528.454C674.589 527.401 676.933 526.622 678.553 526.156C682.531 524.906 686.868 524.595 691.201 525.218C693.015 525.375 694.931 525.846 696.492 526.719C698.057 527.593 699.284 528.884 699.661 530.678C700.037 532.462 699.563 533.921 698.732 535.237C698.12 536.207 697.3 537.116 696.483 538.022C696.207 538.329 695.93 538.636 695.662 538.944L695.655 538.952L695.655 538.952C694.095 540.599 693.657 542.395 693.345 544.279C693.304 544.529 693.265 544.781 693.225 545.035C692.97 546.681 692.704 548.396 691.75 550.047C690.282 552.896 687.363 555.092 684.497 556.949L684.49 556.953L684.49 556.953C680.872 559.141 676.898 560.387 672.584 561.319L672.577 561.32L672.57 561.321C671.899 561.427 671.2 561.551 670.485 561.679C669.123 561.922 667.699 562.176 666.285 562.329C664.119 562.563 661.929 562.566 659.909 561.932L659.906 561.931C657.747 561.214 656.041 559.91 654.38 558.64C654.211 558.511 654.042 558.382 653.874 558.255C652.038 556.863 650.197 555.58 647.751 555.127L647.743 555.126C643.524 554.215 639.29 555.426 635.742 557.569C633.292 559.217 631.157 561.175 629.02 563.136C628.362 563.739 627.704 564.343 627.036 564.938C624.208 567.459 621.223 569.806 617.415 571.216M767.872 421.987C767.872 421.987 767.871 421.987 767.871 421.987L767.886 421.737M767.886 421.737C761.433 421.428 757.49 422.666 752.113 425.453C751.681 425.702 751.252 425.951 750.825 426.199C747.008 428.416 743.364 430.532 738.849 431.646C737.216 432.049 735.583 432.255 733.987 432.457C730.678 432.875 727.529 433.273 724.869 435.361C723.435 436.29 722.27 437.452 721.105 438.613C719.94 439.774 718.775 440.935 717.341 441.864C714.114 444.031 710.53 445.27 706.586 444.651C705.8 444.537 704.966 444.342 704.102 444.139C702.601 443.786 701.009 443.412 699.417 443.412C697.615 443.412 695.813 444.064 694.222 444.64C693.914 444.751 693.614 444.86 693.323 444.96C692.795 445.168 692.266 445.381 691.737 445.594C688.317 446.973 684.86 448.366 681.134 448.366C679.344 448.366 677.728 448.185 676.178 448.012C672.762 447.629 669.665 447.282 665.72 448.986C659.522 451.853 653.735 455.311 647.935 458.777C644.342 460.923 640.744 463.073 637.042 465.087C634.532 466.48 632.113 467.873 629.693 469.267C627.273 470.66 624.854 472.054 622.344 473.447C620.889 474.285 619.269 475.088 617.624 475.903C614.407 477.497 611.094 479.139 608.722 481.188C606.008 483.532 607.353 489.384 608.276 493.395C608.45 494.151 608.608 494.842 608.722 495.431L608.722 495.432C609.798 499.457 610.873 503.482 612.665 507.507C616.25 515.867 621.986 523.918 629.155 530.42C632.023 533.207 637.4 537.232 642.061 535.684C644.382 535.016 645.868 533.265 647.364 531.504C648.64 530 649.924 528.489 651.739 527.633C655.324 525.776 660.343 525.776 663.569 528.253C665.003 529.182 665.72 530.42 666.437 531.658L666.437 531.659C666.437 531.814 666.616 532.123 666.795 532.433C666.854 532.534 666.912 532.635 666.965 532.73L617.415 571.216M667.512 532.588L667.277 532.791L617.326 570.983C621.972 569.263 625.389 566.128 628.841 562.96C630.983 560.995 633.138 559.018 635.608 557.359C639.193 555.191 643.494 553.953 647.796 554.882C650.535 555.389 652.527 556.91 654.529 558.439C656.195 559.712 657.868 560.99 659.984 561.694C663.246 562.718 666.997 562.048 670.428 561.435C671.146 561.307 671.849 561.181 672.531 561.074C676.833 560.145 680.776 558.907 684.361 556.739C687.229 554.882 690.096 552.714 691.53 549.927C692.462 548.318 692.721 546.651 692.977 545.002C693.313 542.842 693.644 540.711 695.474 538.78C695.749 538.463 696.03 538.151 696.31 537.841C698.214 535.728 700.042 533.7 699.417 530.73C698.7 527.324 694.757 525.776 691.172 525.466C686.87 524.847 682.568 525.156 678.625 526.395C675.399 527.324 669.305 529.491 667.512 532.588Z" fill="white" stroke="white" stroke-width="0.5"/>
<path d="M879.391 299.68C882.264 299.524 885.435 299.136 888.03 298.035C890.634 296.93 892.683 295.094 893.242 292.046C893.429 291.075 893.34 290.084 892.902 289.285C892.459 288.479 891.674 287.893 890.528 287.727C887.302 287.108 884.089 286.491 880.877 285.566L880.864 285.562L880.85 285.56C880.626 285.521 880.33 285.478 879.986 285.428C878.92 285.274 877.391 285.052 876.082 284.676C875.214 284.426 874.488 284.118 874.067 283.746C873.861 283.564 873.744 283.38 873.706 283.194C873.669 283.015 873.698 282.799 873.85 282.534C874.081 282.206 874.522 281.903 875.121 281.625C875.719 281.348 876.444 281.111 877.201 280.899C877.874 280.711 878.565 280.546 879.207 280.392C879.287 280.373 879.366 280.354 879.443 280.335C880.146 280.167 880.786 280.009 881.248 279.85L881.253 279.848C883.761 278.919 885.946 277.979 887.773 276.404C891.75 273.591 894.65 269.836 896.101 265.449C897.015 262.764 896.921 260.32 896.559 257.902C896.432 257.049 896.27 256.193 896.108 255.333C896.04 254.978 895.973 254.622 895.908 254.265C895.685 253.039 895.485 251.792 895.396 250.49L895.396 250.489C895.31 249.298 895.568 248.135 895.966 246.974C896.217 246.242 896.517 245.529 896.818 244.812C896.999 244.383 897.18 243.952 897.351 243.516C898.253 241.217 898.834 238.863 897.145 236.431L897.141 236.425C894.544 232.902 889.397 232.293 885.401 233.546C884.122 233.863 883.027 234.414 881.96 234.952L881.95 234.957C880.872 235.5 879.82 236.029 878.597 236.331L878.588 236.333L878.58 236.336C877.195 236.785 876.185 236.703 875.31 236.307C874.419 235.904 873.643 235.165 872.744 234.234C872.457 233.924 872.173 233.613 871.89 233.304C869.36 230.536 866.899 227.845 862.969 226.43C860.788 225.645 858.613 225.333 856.454 225.139C855.727 225.074 855.006 225.022 854.286 224.97C852.859 224.867 851.442 224.765 850.018 224.561C849.678 224.502 849.337 224.454 849.005 224.408C848.896 224.392 848.788 224.377 848.681 224.362C848.246 224.299 847.83 224.233 847.438 224.139C846.656 223.951 845.997 223.659 845.507 223.095C845.007 222.519 844.661 221.636 844.347 220.666C844.268 220.424 844.191 220.175 844.114 219.926C843.891 219.204 843.668 218.48 843.395 217.89L843.388 217.876L843.38 217.863C842.091 215.795 840.415 214.739 838.54 214.496C836.678 214.255 834.654 214.819 832.658 215.915C831.118 216.652 829.665 216.581 828.231 216.131C827.013 215.749 825.825 215.098 824.617 214.435C824.388 214.31 824.159 214.184 823.929 214.06C821.047 212.504 817.808 211.261 814.588 210.024L814.584 210.023C808.841 207.543 802.737 205.372 796.631 203.82C796.539 203.794 796.446 203.767 796.352 203.74C794.263 203.137 791.756 202.414 789.367 202.264C786.873 202.107 784.452 202.572 782.766 204.505C782.649 204.611 782.547 204.761 782.456 204.924C782.36 205.098 782.266 205.306 782.174 205.53C782.009 205.935 781.845 206.416 781.683 206.888C781.666 206.938 781.649 206.988 781.632 207.038C781.452 207.563 781.276 208.065 781.102 208.454C781.015 208.649 780.932 208.807 780.855 208.922C780.772 209.045 780.716 209.087 780.694 209.096C780.57 209.15 780.383 209.172 780.125 209.147C779.87 209.122 779.569 209.055 779.23 208.951C778.554 208.744 777.761 208.402 776.958 208.016C776.156 207.632 775.354 207.208 774.659 206.84L774.579 206.798C773.931 206.455 773.373 206.16 773.017 206.005C768.027 203.233 763.746 199.844 759.817 196.142C757.689 193.996 756.09 191.542 754.476 189.026C754.418 188.936 754.361 188.846 754.303 188.757C752.75 186.332 751.165 183.859 749.075 181.602C745.051 176.865 739.207 176.254 733.103 176.564L733.103 176.564L733.093 176.565C726.259 177.186 719.426 178.739 712.951 181.225C709.711 182.469 706.832 184.022 703.969 185.568C703.873 185.61 703.755 185.662 703.62 185.722C702.727 186.118 701.072 186.852 699.583 187.215C698.715 187.426 697.955 187.497 697.448 187.34C697.204 187.264 697.033 187.14 696.926 186.964C696.818 186.784 696.758 186.52 696.799 186.129L696.8 186.125C696.896 185.049 696.559 184.184 695.953 183.55C695.353 182.922 694.504 182.535 693.592 182.373C691.781 182.052 689.617 182.605 688.469 184.089C688.086 184.55 687.5 184.75 686.765 184.75C686.028 184.75 685.173 184.547 684.312 184.242C682.591 183.632 680.909 182.638 680.198 182.178C680.198 182.178 680.197 182.178 680.197 182.177L680.183 182.168C676.968 180.008 673.71 177.819 669.722 176.88L669.722 176.88L669.714 176.878C667.337 176.404 665.327 176.643 663.421 177.113C662.521 177.335 661.641 177.61 660.761 177.885C660.713 177.9 660.665 177.915 660.617 177.93C659.687 178.22 658.754 178.508 657.778 178.738C653.897 179.652 649.662 179.042 646.135 176.909L646.135 176.909L646.13 176.907C642.967 175.085 640.859 172.051 640.156 168.714C639.809 166.909 640.068 165.248 640.468 163.597C640.576 163.149 640.696 162.699 640.817 162.247C641.137 161.045 641.462 159.825 641.594 158.571L641.594 158.57C641.96 154.932 640.584 151.701 639.015 148.526C638.804 148.098 638.589 147.671 638.374 147.245C636.986 144.487 635.599 141.732 635.14 138.691L635.14 138.69C634.947 137.444 634.242 136.62 633.308 136.18C632.383 135.744 631.249 135.689 630.177 135.93C628.054 136.408 626.013 138.115 626.401 140.624L626.401 140.624L626.401 140.627C626.766 142.834 627.677 144.875 628.711 146.856C629.06 147.524 629.421 148.182 629.781 148.838C630.495 150.14 631.203 151.431 631.796 152.764L631.796 152.764L631.801 152.773C632.845 154.877 632.848 156.83 632.496 158.811C632.328 159.753 632.08 160.696 631.825 161.668C631.811 161.722 631.797 161.776 631.783 161.83C631.514 162.855 631.243 163.91 631.061 165.007L631.06 165.016L631.059 165.026C630.331 173.518 636.154 181.663 645.205 184.79C649.551 186.354 654.251 186.664 658.942 186.041C660.226 185.883 661.503 185.41 662.746 184.949L662.761 184.944C664.017 184.479 665.238 184.028 666.454 183.876C668.852 183.88 670.727 184.996 672.597 186.107C672.89 186.282 673.183 186.456 673.479 186.626C676.896 188.801 681.052 190.834 685.136 191.382C686.953 191.626 688.758 191.576 690.476 191.114C691.979 192.582 694.018 193.63 696.139 194.088C701.735 195.296 706.653 192.453 710.815 190.048C711.002 189.939 711.188 189.832 711.372 189.726C717.435 186.338 724.214 184.18 731.353 183.255C731.687 183.219 732.029 183.178 732.378 183.138C733.533 183.003 734.75 182.86 735.944 182.831C737.498 182.792 738.973 182.948 740.174 183.54L740.174 183.541L740.186 183.546C741.557 184.138 742.509 185.177 743.302 186.394C743.698 187.003 744.052 187.653 744.399 188.31C744.47 188.445 744.542 188.581 744.613 188.716C744.886 189.237 745.159 189.758 745.446 190.253L745.445 190.253L745.451 190.263C751.212 199.281 759.489 206.74 769.562 212.023C771.536 213.108 773.976 214.358 776.56 215.063C779.145 215.768 781.897 215.933 784.477 214.819C786.567 213.916 787.365 212.165 788.034 210.698C788.085 210.587 788.135 210.477 788.184 210.37C788.344 210.093 788.453 209.859 788.539 209.673C788.552 209.646 788.564 209.621 788.575 209.596C788.673 209.388 788.735 209.271 788.814 209.19C788.883 209.118 788.979 209.06 789.173 209.019C789.376 208.976 789.668 208.956 790.113 208.956C790.962 208.956 792.002 209.252 793.076 209.638C793.587 209.822 794.099 210.024 794.595 210.22L794.659 210.245C795.174 210.448 795.672 210.644 796.126 210.801L796.131 210.802C802.933 212.967 809.378 215.441 815.824 218.225C817.01 218.737 818.237 219.371 819.509 220.029L819.702 220.129C821.04 220.82 822.425 221.531 823.847 222.135C826.688 223.342 829.702 224.138 832.822 223.504L832.831 223.502L832.841 223.5C833.385 223.343 834.11 223.108 834.792 222.833C835.278 222.638 835.757 222.416 836.134 222.18C836.523 224.053 837.602 225.9 838.677 227.139L838.677 227.139L838.683 227.145C841.619 230.315 846.006 231.249 850.319 231.559L850.321 231.559C850.735 231.587 851.148 231.612 851.56 231.637C855.812 231.896 859.882 232.143 863.079 234.905C863.872 235.59 864.58 236.354 865.273 237.14C865.47 237.364 865.666 237.59 865.863 237.817C866.354 238.383 866.848 238.952 867.363 239.494C868.811 241.018 870.461 242.37 872.851 243.006C875.784 243.955 878.171 243.555 880.485 242.771C881.313 242.49 882.138 242.158 882.973 241.822C883.298 241.692 883.624 241.561 883.952 241.432C885.13 240.969 886.349 240.529 887.675 240.223L887.685 240.221L887.694 240.218C888.178 240.066 888.565 239.979 888.871 239.943C889.179 239.906 889.389 239.923 889.527 239.967C889.657 240.008 889.719 240.069 889.753 240.136C889.791 240.212 889.81 240.326 889.79 240.493C889.751 240.831 889.569 241.28 889.312 241.782C889.108 242.179 888.87 242.588 888.643 242.977C888.587 243.073 888.532 243.168 888.478 243.26L888.468 243.277L888.461 243.296C887.373 246.116 887.007 248.635 887.371 251.468L887.371 251.468L887.373 251.479C887.498 252.202 887.633 252.91 887.765 253.604C888.203 255.906 888.613 258.062 888.579 260.18C888.535 262.91 887.748 265.56 885.282 268.299L885.279 268.302C883.168 270.734 880.348 272.261 877.154 273.18L877.154 273.18L877.146 273.183C876.28 273.463 875.428 273.683 874.587 273.9C874.034 274.043 873.486 274.185 872.942 274.341C871.591 274.73 870.305 275.203 869.196 276.001C866.997 277.427 865.518 279.573 865.147 281.817C864.773 284.074 865.525 286.41 867.748 288.17L867.747 288.17L867.757 288.176C869.791 289.641 872.446 290.289 874.804 290.864C874.995 290.911 875.184 290.957 875.371 291.003L875.378 291.005L879.099 291.808C878.762 291.817 878.427 291.824 878.097 291.83C877.914 291.833 877.733 291.837 877.554 291.841C876.44 291.865 875.408 291.903 874.663 292.063C871.395 292.692 868.472 294.263 866.636 296.482C862.611 301.224 862.995 307.213 864.435 312.501L864.436 312.504C864.827 313.855 865.995 314.678 867.312 314.963C868.628 315.247 870.136 315.006 871.275 314.186L871.284 314.179L871.292 314.172C871.781 313.75 872.188 313.691 872.525 313.792C872.883 313.899 873.223 314.204 873.524 314.63C873.82 315.051 874.057 315.561 874.22 316.025C874.385 316.496 874.464 316.89 874.464 317.079V317.103L874.468 317.127C874.642 318.028 874.643 319.009 874.643 320.021V320.034C874.643 321.028 874.643 322.052 874.825 323.002L874.85 323.196C875.197 325.905 875.592 328.985 877.742 331.168C877.806 331.268 877.901 331.373 878.007 331.476C878.127 331.593 878.274 331.722 878.437 331.855C878.763 332.121 879.16 332.415 879.543 332.688C879.926 332.96 880.298 333.213 880.573 333.398C880.639 333.442 880.699 333.482 880.752 333.517L880.549 333.693L879.524 334.578L877.777 336.088L877.765 336.098L877.754 336.11C875.278 338.859 874.517 342.489 873.825 345.788C873.8 345.904 873.776 346.019 873.752 346.134L873.749 346.146L873.748 346.159C873.389 349.568 873.033 352.942 871.971 356.005C871.095 358.119 869.881 359.382 868.29 360.125C866.683 360.875 864.668 361.108 862.167 361.108C860.371 361.108 858.583 361.099 856.802 361.09C847.93 361.047 839.205 361.005 830.234 362.038L830.213 362.04L830.193 362.046C828.527 362.526 827.371 363.577 827.024 364.606C826.848 365.127 826.876 365.661 827.187 366.091C827.494 366.516 828.042 366.787 828.799 366.87C835.981 367.8 842.803 368.11 849.979 368.11C851.495 368.11 853.102 368.187 854.76 368.274C854.946 368.284 855.132 368.294 855.318 368.304C856.799 368.382 858.315 368.462 859.831 368.497C863.244 368.574 866.682 368.421 869.768 367.48L869.774 367.478C872.591 366.536 874.603 365.138 876.063 363.436C877.522 361.737 878.42 359.746 879.032 357.634C879.642 355.524 879.969 353.282 880.277 351.077L880.322 350.755C880.614 348.659 880.9 346.606 881.405 344.712C881.75 343.748 882.356 342.848 883.08 341.96C883.548 341.386 884.055 340.828 884.569 340.264C884.856 339.949 885.146 339.631 885.432 339.306C887 337.526 888.415 335.597 888.227 333.161L888.226 333.153L888.225 333.145C888.039 331.857 887.569 330.96 886.909 330.227C886.294 329.544 885.516 329.008 884.685 328.434L884.539 328.333C884.538 328.333 884.537 328.332 884.537 328.332C883.499 327.585 882.905 326.773 882.566 325.856C882.223 324.931 882.133 323.883 882.133 322.653V322.611C882.133 318.001 882.133 312.609 877.001 309.439C875.242 308.225 873.144 307.591 871.069 307.578C871.013 306.179 871.183 304.784 871.717 303.555L871.718 303.552C872.412 301.904 873.352 301.027 874.586 300.512C875.841 299.989 877.412 299.835 879.391 299.68ZM879.391 299.68C879.39 299.68 879.388 299.68 879.387 299.68L879.374 299.43M879.391 299.68C879.392 299.679 879.393 299.679 879.393 299.679L879.374 299.43M879.374 299.43C875.431 299.74 872.921 300.049 871.487 303.455L890.487 287.974C892.638 288.283 893.355 290.141 892.996 291.999C891.921 297.882 885.11 299.12 879.374 299.43Z" fill="white" stroke="white" stroke-width="0.5"/>
<path d="M630.078 140.099L630.072 140.107C628.906 141.787 626.866 141.858 625.477 140.99C624.779 140.553 624.23 139.872 624.028 139.021C623.826 138.168 623.979 137.172 624.634 136.12C625.152 135.224 625.283 134.53 625.19 133.973C625.096 133.416 624.771 132.952 624.281 132.529C623.79 132.104 623.151 131.738 622.463 131.376C622.293 131.286 622.118 131.196 621.943 131.106C621.422 130.837 620.892 130.563 620.415 130.269L620.408 130.264L620.4 130.259C618.198 128.674 617.087 126.761 616.717 124.226C616.364 123.015 615.943 122.333 615.28 121.996C614.6 121.651 613.6 121.633 611.993 121.941C610.577 122.247 609.248 122.706 607.902 123.171L607.896 123.173C606.556 123.636 605.199 124.105 603.751 124.418L603.738 124.42L603.725 124.422C600.841 124.733 597.933 124.736 595.018 123.792L595.008 123.789C593.737 123.318 592.56 122.692 591.4 122.076L591.392 122.072C590.228 121.453 589.08 120.843 587.847 120.386C581.89 118.674 575.62 119.892 569.547 121.072C569.121 121.155 568.695 121.238 568.271 121.32C565.249 122.286 562.177 119.681 562.948 116.681C565.442 106.522 564.373 96.3704 559.03 86.8311C558.455 85.8365 558.359 84.5955 558.791 83.5178C559.226 82.4323 560.19 81.5265 561.701 81.1995C562.01 81.1267 562.323 81.054 562.639 80.9807C564.343 80.5847 566.128 80.1702 567.818 79.6188C569.821 78.965 571.667 78.1261 573.064 76.9192C574.288 75.8623 575.143 74.5181 575.356 73.1982C575.565 71.8956 575.153 70.5945 573.794 69.5669L573.787 69.562L573.781 69.5566C572.728 68.6469 571.405 67.8841 570.014 67.1087C569.89 67.0396 569.765 66.9703 569.64 66.9008C568.372 66.1961 567.066 65.4705 565.909 64.6142L565.902 64.6086L565.895 64.6025C563.371 62.4226 561.198 59.9241 559.746 57.1046C558.403 54.8987 557.357 52.5148 556.321 50.1532C555.968 49.3496 555.617 48.5486 555.255 47.7581C553.825 44.6305 552.227 41.6465 549.753 39.2028C547.994 37.5321 545.081 35.9317 542.221 35.4376C539.366 34.9443 536.627 35.5578 535.087 38.2193C534.309 39.5629 532.77 40.126 531.279 40.0857C529.79 40.0455 528.267 39.4033 527.492 38.232L527.488 38.2248C525.956 35.7257 523.049 35.2488 519.847 35.6713C516.659 36.092 513.285 37.3935 510.953 38.3232C504.506 41.4167 497.985 44.24 490.37 42.674C488.824 42.3599 487.148 41.7528 485.466 41.1348L485.274 41.0642C483.647 40.4664 482.015 39.8669 480.459 39.4985C478.84 39.1154 477.332 38.9902 476.019 39.3604C474.72 39.727 473.584 40.5872 472.717 42.2358L472.715 42.239C472.384 42.8463 472.067 43.4423 471.756 44.027C469.382 48.4907 467.362 52.29 462.227 55.3391L462.221 55.3428C457.164 58.1506 451.02 59.7134 444.869 59.0887C441.779 58.8075 438.98 57.5835 436.255 56.3916C435.934 56.2511 435.614 56.111 435.294 55.9729C432.248 54.6573 429.253 53.5219 425.918 53.8248C422.986 54.132 420.182 54.8808 417.427 55.7543C416.315 56.107 415.206 56.4818 414.099 56.8558C412.477 57.404 410.861 57.9502 409.25 58.4217C404.696 59.7546 400.08 60.5254 395.081 59.1836C385.951 65.7427 381.178 74.8958 378.683 84.8328C376.047 95.3261 375.957 106.675 375.957 116.742C375.957 119.215 375.869 123.287 374.595 126.472C373.955 128.069 373.009 129.468 371.602 130.323C370.19 131.182 368.351 131.472 365.973 130.92C363.864 130.444 362.317 129.49 361.161 128.232C360.009 126.978 359.255 125.432 358.711 123.787C358.167 122.143 357.828 120.386 357.515 118.704C357.498 118.613 357.481 118.523 357.464 118.433C357.169 116.842 356.888 115.333 356.469 114.032L356.467 114.025L356.467 114.025C355.04 109.093 352.554 103.902 347.614 100.854L347.607 100.849L347.607 100.849C345.323 99.3316 343.227 98.8814 341.086 99.0324C338.932 99.1843 336.723 99.945 334.21 100.875L334.208 100.876C329.925 102.417 325.151 104.02 320.735 101.477L320.714 101.465L320.696 101.449C320.353 101.152 320.008 100.929 319.648 100.696L319.643 100.693C319.36 100.509 319.068 100.32 318.773 100.088C318.447 100.347 318.154 100.66 317.869 100.996C317.748 101.139 317.627 101.287 317.505 101.437C317.149 101.874 316.782 102.324 316.37 102.682C314.018 105.024 310.841 107.068 307.642 107.66C306.037 107.957 304.421 107.89 302.902 107.304C301.382 106.718 299.976 105.618 298.786 103.878L298.781 103.871L298.776 103.862C297.968 102.466 297.656 100.826 297.353 99.2331C297.31 99.0077 297.268 98.7832 297.224 98.5604C296.866 96.7442 296.428 95.0291 295.228 93.6926C293.858 92.3654 291.874 91.8347 289.856 91.8726C287.836 91.9105 285.822 92.5185 284.431 93.4193L284.423 93.4242L284.423 93.4241C282.143 94.7879 280.735 96.6072 279.535 98.6022C279.095 99.3354 278.685 100.088 278.269 100.851C278.117 101.129 277.965 101.409 277.809 101.691C277.231 102.738 276.621 103.793 275.895 104.811L275.887 104.823L275.877 104.833C273.319 107.675 268.889 109.298 265.166 107.048C263.285 105.91 262.727 104.277 262.32 102.636C262.268 102.427 262.219 102.219 262.169 102.012C261.83 100.577 261.501 99.1907 260.453 98.0245C259.611 97.1548 258.246 96.6305 256.814 96.5556C255.381 96.4806 253.927 96.8574 252.913 97.7336L252.904 97.7406L252.904 97.7404C250.639 99.5339 247.904 98.9556 246.265 97.4991C245.444 96.7701 244.878 95.8051 244.787 94.7798C244.696 93.7449 245.092 92.6826 246.13 91.784C249.424 88.7825 254.164 87.768 258.609 88.3948C263.054 89.0217 267.254 91.297 269.453 94.9381L269.455 94.9421C269.636 95.2537 269.838 95.6413 270.035 96.0725C270.288 95.6656 270.559 95.2703 270.831 94.9184C273.712 90.8747 277.334 87.114 282.779 85.2326C286.773 83.8214 291.398 83.7435 295.435 84.9583C299.473 86.1731 302.949 88.6901 304.599 92.4907L304.603 92.5002L304.603 92.5002C305.328 94.3789 305.69 96.2551 306.047 98.107L306.049 98.1164L306.054 98.1398V98.1637C306.054 98.4418 306.137 98.9595 306.269 99.4539C306.335 99.6985 306.41 99.9285 306.488 100.113C306.541 100.24 306.59 100.329 306.629 100.386C307.052 100.35 307.519 100.109 308.015 99.7065C308.55 99.273 309.086 98.6793 309.597 98.0454C310.008 97.536 310.397 97.0087 310.754 96.5254C310.84 96.4078 310.925 96.2927 311.008 96.1811C311.422 95.623 311.798 95.1324 312.093 94.8782C314.638 92.68 317.956 91.3848 321.298 92.6627C322.238 92.9352 323.048 93.4366 323.805 93.9049C323.943 93.9905 324.08 94.0749 324.215 94.1567C325.101 94.6924 325.94 95.1208 326.932 95.1269C327.787 94.975 328.825 94.5288 329.895 94.0281C330.115 93.9253 330.336 93.8201 330.557 93.7152C331.4 93.314 332.237 92.9164 332.959 92.6662C343.48 88.2831 353.627 92.681 359.772 100.486L359.776 100.492L359.776 100.492C363.024 104.857 365.19 109.844 366.272 114.831L366.275 114.843L366.274 114.843L366.275 114.847C366.464 115.99 366.653 117.133 366.842 118.229C366.853 117.408 366.853 116.596 366.853 115.813V115.81C366.853 110.548 366.853 105.277 367.212 100.005L367.213 100.001C368.649 82.3202 374.399 63.6509 390.979 52.1321L390.979 52.1317C392.824 50.857 394.714 50.5142 396.609 51.4937C398.867 52.5423 401.402 52.4745 403.975 51.9378C405.958 51.5245 407.936 50.84 409.811 50.1915C410.376 49.9959 410.932 49.8036 411.476 49.6231L411.481 49.6214C411.963 49.4725 412.45 49.3205 412.94 49.1674C417.529 47.734 422.427 46.2043 427.327 46.2043H427.341L427.341 46.2047C430.242 46.3613 432.778 47.0663 435.211 47.9614C436.426 48.4086 437.618 48.9041 438.816 49.4021L438.826 49.4061C440.021 49.9029 441.222 50.4021 442.466 50.8629C447.053 52.3854 452 51.7783 456.248 49.6386C458.352 48.5023 459.893 46.8521 461.219 44.9978C462.044 43.8429 462.775 42.628 463.507 41.4102C463.96 40.6563 464.414 39.9013 464.892 39.1587C466.129 37.2341 467.506 35.431 469.377 34.1112C471.254 32.7874 473.613 31.961 476.797 31.961C479.527 31.961 482.068 32.6686 484.581 33.4826C485.041 33.6313 485.498 33.7834 485.956 33.9356C488.014 34.6194 490.074 35.3036 492.254 35.6803L492.259 35.6811C495.42 36.2878 498.416 35.6082 501.354 34.493C502.823 33.9353 504.272 33.2713 505.718 32.6078L505.734 32.6009C507.172 31.9413 508.608 31.2826 510.046 30.7391M630.078 140.099L510.136 30.9724M630.078 140.099L630.083 140.09C631.536 137.58 632.282 135.034 631.543 132.162L631.541 132.154C631.17 130.873 630.432 129.603 629.339 128.344C628.772 127.692 628.024 127.21 627.306 126.784C627.176 126.707 627.048 126.632 626.921 126.558C626.335 126.215 625.794 125.899 625.37 125.532C624.908 125.133 624.737 124.521 624.648 123.795C624.62 123.56 624.601 123.326 624.582 123.088C624.571 122.958 624.561 122.827 624.548 122.694C624.514 122.328 624.468 121.96 624.371 121.627C624.001 120.347 623.26 119.065 622.144 118.101C619.565 115.873 615.903 115.251 612.638 115.564C610.64 115.721 608.828 116.192 607.031 116.735C606.545 116.882 606.061 117.034 605.575 117.186C604.257 117.6 602.924 118.018 601.492 118.356C599.431 118.8 597.615 118.138 595.794 117.179C595.26 116.897 594.738 116.598 594.211 116.296C593.829 116.076 593.443 115.855 593.047 115.638C592.118 115.127 591.16 114.653 590.151 114.336C584.353 112.515 577.988 112.852 571.912 113.767M630.078 140.099L571.912 113.767M510.046 30.7391C510.046 30.739 510.047 30.7387 510.047 30.7386L510.136 30.9724M510.046 30.7391C510.045 30.7393 510.045 30.7395 510.044 30.7397L510.136 30.9724M510.046 30.7391C514.021 29.1788 518.99 28.3192 523.517 28.8275C526.106 29.1182 528.563 29.8587 530.605 31.1813M510.136 30.9724C516.3 28.5521 524.874 27.8344 530.379 31.3337C530.454 31.2822 530.529 31.2314 530.605 31.1813M530.605 31.1813C532.388 30.0033 534.487 29.2082 536.706 28.7915C540.878 28.0081 545.504 28.5552 549.319 30.4382C554.22 32.7903 557.299 36.5519 559.687 40.6782C560.881 42.7401 561.904 44.8973 562.896 47.016C562.967 47.1692 563.039 47.3221 563.11 47.4748C564.028 49.4376 564.925 51.358 565.918 53.1449L565.919 53.1475C568.397 57.7338 571.937 60.492 576.582 63.2698L576.583 63.2704C580.189 65.4507 583.145 68.2948 583.514 72.4416L583.515 72.4548L583.515 72.4548C583.698 77.5246 580.939 81.1569 576.997 83.818C574.405 85.5677 571.29 86.9075 568.131 87.9726C571.925 96.0767 573.274 104.98 571.912 113.767M530.605 31.1813C530.681 31.2307 530.756 31.2808 530.831 31.3317C535.873 28.0563 543.477 27.8333 549.21 30.6628L571.912 113.767M367.018 120.629C367.038 120.253 367.053 119.875 367.064 119.497L367.018 120.629ZM367.018 120.629C366.95 120.267 366.882 119.895 366.814 119.516L367.018 120.629ZM306.521 100.641C306.645 100.641 306.77 100.625 306.896 100.596C306.882 100.576 306.868 100.561 306.857 100.551C306.838 100.532 306.819 100.518 306.802 100.506C306.785 100.494 306.767 100.483 306.748 100.473C306.723 100.459 306.695 100.445 306.663 100.431C306.671 100.439 306.678 100.446 306.684 100.452L306.521 100.641ZM306.521 100.641C306.511 100.632 306.501 100.623 306.491 100.612C306.501 100.599 306.511 100.588 306.521 100.579C306.53 100.57 306.54 100.563 306.548 100.557C306.552 100.555 306.556 100.552 306.56 100.55L306.521 100.641ZM368.537 123.864C368.537 123.864 368.529 123.849 368.513 123.822C368.529 123.832 368.537 123.846 368.537 123.864ZM567.893 88.0525C567.857 87.9765 567.821 87.9006 567.785 87.8247C567.865 87.7983 567.944 87.7717 568.024 87.7449L567.893 88.0525Z" fill="white" stroke="white" stroke-width="0.5"/>
<path d="M245.714 84.6372C246.841 85.289 247.583 86.2612 248.306 87.5102C248.494 87.8338 248.68 88.2354 248.819 88.6372C248.939 88.9837 249.031 89.3451 249.052 89.6639C249.602 89.5665 250.188 89.5594 250.765 89.6323C251.719 89.7528 252.668 90.0947 253.408 90.6366C254.149 91.1796 254.692 91.9343 254.791 92.8731L254.794 92.8993L254.791 92.9255C254.604 94.7069 253.663 96.0928 252.296 96.9071C250.932 97.7196 249.159 97.9553 247.31 97.4762L247.301 97.4737L247.291 97.4705C245.464 96.8392 243.991 95.8879 242.883 94.6114L242.867 94.5934L242.855 94.5727C242.663 94.2404 242.477 93.7549 242.298 93.2541C242.237 93.0821 242.176 92.9079 242.116 92.7349C241.999 92.3962 241.883 92.0621 241.766 91.7583C241.606 91.4119 241.525 91.1391 241.494 90.9262C241.449 90.9416 241.401 90.957 241.348 90.9721L241.335 90.9759L241.322 90.9782C240.495 91.121 239.645 91.6996 238.744 92.4C238.57 92.5348 238.395 92.6742 238.218 92.8146C237.5 93.3859 236.758 93.9759 236.017 94.3598C234.22 95.291 232.023 96.2457 229.808 96.2457C227.979 96.2457 226.255 95.9633 224.699 95.4147C222.928 98.2621 220.292 100.625 216.641 102.109C214.761 102.92 212.693 102.516 211.369 101.455C210.705 100.922 210.219 100.216 210.048 99.4048C209.877 98.591 210.028 97.6947 210.594 96.7956C210.641 96.7134 210.635 96.6595 210.606 96.6039C210.567 96.5282 210.472 96.4319 210.297 96.3252C209.951 96.1139 209.4 95.9276 208.777 95.7739C207.536 95.4677 206.123 95.3168 205.79 95.3168C204.654 95.3168 203.521 95.4146 202.375 95.5136C202.087 95.5385 201.798 95.5634 201.508 95.5869C200.074 95.703 198.622 95.7822 197.165 95.6256C192.062 95.309 188.421 92.7851 185.524 89.3447L185.517 89.3365L185.517 89.3364C185.237 88.974 184.973 88.6151 184.714 88.2631C183.623 86.7805 182.623 85.421 180.93 84.4461C179.889 83.8467 178.576 83.4661 177.192 83.1575C176.593 83.024 175.985 82.9049 175.384 82.7871C175.292 82.7691 175.2 82.7511 175.109 82.733C174.42 82.5976 173.742 82.4611 173.108 82.3047L173.107 82.3043C167.021 80.7582 160.576 79.521 154.122 78.2822L154.121 78.282C130.474 73.64 106.47 70.8549 82.4672 70.236L82.4662 70.236C72.0762 69.9266 61.3339 69.9267 50.5946 70.8541C46.6582 71.3179 42.3769 72.0123 38.458 73.2816C34.5361 74.552 30.9977 76.3918 28.5294 79.1329L28.5258 79.1369C27.3789 80.3561 26.4487 81.7509 25.5726 83.2114C25.2285 83.785 24.8904 84.373 24.5505 84.9642C24.0316 85.8666 23.5086 86.7763 22.9537 87.653C21.1027 90.5777 18.8239 93.2628 14.8055 94.6829C10.4155 96.2626 6.39438 94.6838 2.47744 93.1459L2.44193 93.132C0.504364 92.3713 -0.735237 92.4786 -1.57487 93.1002C-2.43601 93.7378 -2.95921 94.9706 -3.31618 96.6664L-3.31721 96.6713C-4.20078 100.487 -3.76183 104.778 -2.6911 109.017C-1.62099 113.253 0.0748215 117.418 1.68558 120.973L1.68767 120.978C5.25359 129.294 11.3204 136.696 18.4697 142.871C19.6349 143.878 19.9124 145.459 19.4863 146.849C19.059 148.244 17.9166 149.479 16.2025 149.808C15.8334 149.879 15.5839 150.008 15.4173 150.165C15.2523 150.32 15.1524 150.519 15.1073 150.76C15.0144 151.259 15.1594 151.919 15.4468 152.645C15.8852 153.751 16.6026 154.893 17.084 155.66C17.2309 155.893 17.3558 156.092 17.4442 156.244C19.2464 159.048 20.6998 162.179 21.064 165.636C21.7893 171.592 19.9721 177.263 14.5072 181.041C12.3186 182.615 9.76793 183.558 6.86185 183.872L6.84846 183.873H6.83501C6.10709 183.873 5.3297 183.802 4.56586 183.733C4.19049 183.699 3.8184 183.665 3.45705 183.64C2.33966 183.563 1.30863 183.568 0.464066 183.859L0.444931 183.866L0.42498 183.869C-0.390457 184.01 -1.15034 184.581 -1.85829 185.307C-2.31792 185.778 -2.73042 186.287 -3.11525 186.761C-3.32767 187.022 -3.53168 187.274 -3.73053 187.503L-3.7347 187.507L-3.73476 187.507C-9.11412 193.393 -14.8515 199.278 -20.5855 205.159C-25.9646 211.044 -31.7017 216.929 -37.4354 222.81L-37.4371 222.812L-37.4412 222.816C-38.2359 223.594 -39.0378 224.371 -39.8411 225.15C-44.4829 229.65 -49.1748 234.199 -52.8286 239.195C-57.6181 245.784 -58.3318 252.831 -56.9972 259.824C-55.6609 266.827 -52.2732 273.763 -48.8689 280.108C-47.745 282.054 -48.095 284.718 -50.4222 285.723C-54.0828 287.304 -57.019 286.981 -60.6403 285.73L-60.6492 285.727L-60.6578 285.723C-60.8206 285.653 -61.0667 285.524 -61.3514 285.376C-61.3991 285.351 -61.4479 285.325 -61.4975 285.299C-61.8499 285.116 -62.2594 284.906 -62.6786 284.715C-63.0988 284.524 -63.5215 284.356 -63.9 284.255C-64.287 284.151 -64.5902 284.128 -64.7912 284.186L-64.7993 284.188L-64.8076 284.19C-65.0834 284.249 -65.3741 284.468 -65.6753 284.835C-65.9724 285.197 -66.2542 285.672 -66.5201 286.189C-66.7748 286.684 -67.0096 287.206 -67.2268 287.689L-67.2537 287.749C-67.4752 288.242 -67.6818 288.699 -67.8684 289.022C-69.6253 292.274 -71.3391 295.489 -73.0401 298.68C-76.1926 304.596 -79.3014 310.428 -82.5599 316.259C-82.8117 316.836 -83.157 317.445 -83.506 318.06C-83.5383 318.116 -83.5706 318.173 -83.6029 318.23C-83.9899 318.913 -84.3743 319.607 -84.6587 320.306C-85.2255 321.699 -85.376 323.063 -84.3787 324.355C-83.6907 325.247 -82.6483 326.001 -81.4857 326.735C-81.1064 326.974 -80.7129 327.212 -80.3168 327.452C-79.5149 327.937 -78.7028 328.428 -77.978 328.95L-77.9765 328.951C-75.6468 330.653 -73.4067 332.279 -71.1662 333.904L-71.1448 333.92C-68.9119 335.54 -66.6784 337.161 -64.3557 338.858C-63.7731 339.27 -62.9314 339.939 -61.9116 340.749C-61.1965 341.317 -60.394 341.955 -59.5318 342.622C-57.4284 344.251 -54.951 346.072 -52.4549 347.555C-49.9534 349.04 -47.4579 350.17 -45.3146 350.439C-44.2464 350.573 -43.2789 350.492 -42.4449 350.146C-41.6147 349.801 -40.8992 349.188 -40.3418 348.225L-40.3377 348.218C-38.9888 346.054 -36.4041 346.003 -34.5437 346.967C-33.6079 347.452 -32.8203 348.207 -32.4343 349.124C-32.044 350.051 -32.0739 351.123 -32.7438 352.198L-32.7479 352.205L-32.7523 352.211C-35.6826 356.324 -40.7949 358.202 -46.2331 357.889C-46.2334 357.889 -46.2337 357.889 -46.234 357.889L-46.2196 357.639C-52.1674 357.337 -57.0909 353.79 -61.3232 350.741L245.714 84.6372ZM245.714 84.6372C243.859 83.359 241.644 83.047 239.451 83.3627L239.44 83.3643L239.429 83.3668C238.402 83.6089 237.206 84.2477 235.971 84.9717C235.608 85.1847 235.241 85.4054 234.871 85.6274C233.971 86.1685 233.058 86.7173 232.158 87.181C230.887 87.8357 229.686 88.2967 228.642 88.3241C228.125 88.3377 227.652 88.2448 227.228 88.0205C226.806 87.7968 226.417 87.4349 226.079 86.888C225.683 86.205 225 85.73 224.219 85.4459C223.436 85.1611 222.536 85.0612 221.674 85.1417C219.98 85.2999 218.296 86.1838 218.089 87.9048C217.812 89.219 217.373 90.3833 216.712 91.4037M245.714 84.6372L216.712 91.4037M216.712 91.4037C216.381 91.0983 216.016 90.8067 215.617 90.5307M216.712 91.4037L215.617 90.5307M215.617 90.5307C211.233 87.0632 206.126 87.0768 200.742 87.6967L200.74 87.697C198.233 88.0064 195.81 87.9909 194.102 86.8105C193.241 86.2151 192.543 85.3908 191.874 84.5046C191.701 84.2753 191.529 84.041 191.357 83.8057C190.872 83.1445 190.382 82.4765 189.846 81.8973C186.411 77.7466 181.678 76.3948 176.661 74.9618C176.357 74.8751 176.052 74.788 175.747 74.7L175.741 74.6984C149.555 67.8819 122.652 63.8543 95.393 62.3052V62.3052L95.3905 62.3051C82.123 61.6857 68.4948 61.3758 55.2236 61.6856L55.2214 61.6857C45.529 61.9958 35.0853 63.5459 26.788 68.2195C22.8114 70.4057 19.5556 73.5284 17.3821 76.9677C16.9219 77.6052 16.4896 78.4329 16.0542 79.3199C15.9252 79.5827 15.796 79.8508 15.6653 80.1217C15.35 80.7756 15.0267 81.446 14.6799 82.0996C13.6928 83.96 12.5645 85.581 11.0471 86.1635L11.0471 86.1633L11.0376 86.1674C10.0321 86.6016 9.11166 86.5327 8.21263 86.2368C7.51287 86.0066 6.84334 85.6463 6.15721 85.2771C5.94556 85.1632 5.73232 85.0484 5.51614 84.9364L5.50831 84.9323L5.50022 84.9288C3.32342 83.9887 0.78038 83.3602 -1.76843 83.3602H-1.77742L-1.78638 83.3608C-6.17202 83.6765 -9.83045 86.2011 -11.6637 89.368C-14.2116 93.7697 -14.5666 99.0193 -13.8909 104.233C-13.215 109.449 -11.5041 114.656 -9.88929 118.996L-9.88729 119.001C-6.14423 128.431 -0.238701 137.158 7.59308 144.576C6.2728 146.207 5.50958 148.191 5.50958 150.182C5.50958 153.043 6.79871 155.495 8.18787 157.856C8.35361 158.138 8.52065 158.418 8.68724 158.698C9.928 160.78 11.1439 162.82 11.6087 165.095L11.6084 165.095L11.6116 165.107C12.314 167.837 11.9541 170.832 9.88498 172.918C8.67528 174.112 7.47333 174.557 6.17205 174.744C5.51516 174.839 4.8333 174.868 4.10452 174.892C4.03543 174.894 3.96593 174.897 3.89603 174.899C3.23555 174.92 2.53835 174.943 1.80437 175.013C-1.84495 175.016 -4.58343 176.36 -6.94297 178.241C-8.55544 179.527 -10.0061 181.078 -11.447 182.619C-12.101 183.319 -12.753 184.016 -13.4172 184.685L-13.418 184.686C-18.4375 189.796 -23.4568 194.983 -28.4754 200.17L-28.4767 200.171C-33.4951 205.357 -38.5126 210.542 -43.5301 215.65L-43.5329 215.653C-45.1067 217.308 -46.7931 218.982 -48.5094 220.685C-51.2662 223.421 -54.1003 226.234 -56.6691 229.169C-60.8455 233.94 -64.3707 239.084 -65.8193 244.868C-68.7296 255.681 -65.0717 266.479 -60.1703 276.574L215.617 90.5307Z" fill="white" stroke="white" stroke-width="0.5"/>
<path d="M-27.3635 353.815L-27.3635 353.815L-27.3588 353.818C-27.2831 353.873 -27.2069 353.928 -27.1302 353.983C-25.0411 355.489 -22.5697 357.27 -19.7498 357.882C-16.8194 358.828 -13.8944 358.507 -10.9883 357.254C-10.4985 357.072 -10.0412 356.882 -9.60256 356.7C-7.7444 355.93 -6.22105 355.298 -3.98877 356.021L-3.98887 356.021L-3.97689 356.024C-1.92013 356.579 -0.104652 357.372 1.68291 358.152C2.37063 358.452 3.05422 358.751 3.74583 359.033C6.22287 360.045 8.77021 360.834 11.8677 360.677C12.6092 360.677 13.3459 360.517 14.0519 360.365L14.0649 360.362C14.7868 360.206 15.4773 360.058 16.163 360.058C17.3692 360.058 18.227 360.354 19.0534 360.767C19.3724 360.927 19.6836 361.102 20.0118 361.287C20.1146 361.345 20.2192 361.404 20.3261 361.463C20.7712 361.712 21.2503 361.968 21.7995 362.205L21.7993 362.205L21.8118 362.21C24.3564 363.152 26.9059 363.467 29.4573 363.153C30.6587 363.004 31.8788 362.734 33.0766 362.468C33.1439 362.453 33.2112 362.438 33.2784 362.423C34.546 362.142 35.7862 361.874 36.9785 361.76C39.3523 361.532 41.4948 361.913 43.2146 363.993L43.216 363.994C44.2729 365.25 45.1301 366.543 45.9826 367.829C46.278 368.274 46.5729 368.719 46.8753 369.161C48.0452 370.871 49.3169 372.522 51.1393 373.938C55.5232 377.409 61.7093 377.714 66.7864 375.837C69.8157 374.963 72.5293 373.282 74.901 371.813C75.0837 371.7 75.2644 371.588 75.443 371.478C75.7256 371.303 76.01 371.132 76.2937 370.961C78.494 369.636 80.653 368.336 81.639 365.781C82.0377 364.748 81.7327 363.794 81.0437 363.114C80.3652 362.444 79.3177 362.038 78.1909 362.035C74.7719 361.729 72.0605 363.696 69.3763 365.642C69.3043 365.694 69.2324 365.746 69.1605 365.798C66.3732 367.818 63.5772 369.768 59.9177 369.467L59.9126 369.467C57.5034 369.318 55.8598 367.986 54.5387 366.274C53.8769 365.417 53.3012 364.47 52.7527 363.537C52.6652 363.389 52.5783 363.24 52.4919 363.092C52.0392 362.318 51.5979 361.562 51.1406 360.904L51.1407 360.904L51.1365 360.898C48.6033 357.46 45.3223 354.617 40.2116 353.987C38.9277 353.828 37.5604 353.908 36.2091 354.064C35.5327 354.142 34.8571 354.239 34.1963 354.336C34.1351 354.345 34.074 354.354 34.0131 354.363C33.4148 354.45 32.83 354.536 32.2638 354.606L32.2638 354.606L32.2519 354.608C31.8615 354.675 31.4945 354.742 31.1462 354.806C29.8767 355.037 28.8558 355.223 27.8583 355.223C26.6083 355.223 25.3962 354.928 23.8158 354.018L23.8158 354.018L23.8098 354.015C22.3654 353.235 21.0887 352.682 19.7142 352.365C18.3388 352.049 16.8778 351.971 15.066 352.128L15.0637 352.128C14.376 352.194 13.741 352.273 13.1374 352.348C10.8774 352.629 9.05735 352.856 6.56217 352.139C5.32187 351.68 4.12362 351.124 2.92767 350.559C2.81488 350.506 2.70209 350.452 2.58928 350.399C1.50613 349.887 0.421413 349.374 -0.682236 348.932C-3.12241 347.956 -5.67902 347.321 -8.60726 347.794C-9.90757 347.956 -11.106 348.516 -12.2682 349.095C-12.3828 349.153 -12.497 349.21 -12.6109 349.267C-13.6635 349.795 -14.6937 350.311 -15.7928 350.584C-17.5123 350.878 -19.1588 350.435 -20.7507 349.748C-21.5477 349.403 -22.3242 349.001 -23.0868 348.604L-23.1576 348.567C-23.8928 348.184 -24.6169 347.807 -25.3212 347.503C-27.4803 346.57 -30.0245 345.704 -32.4024 345.625C-34.7914 345.545 -37.0386 346.263 -38.534 348.523L-38.5382 348.53L-38.5419 348.536C-38.766 348.923 -38.766 349.406 -38.5419 349.793C-38.3127 350.189 -37.866 350.459 -37.2501 350.459C-33.3658 350.459 -30.1917 351.677 -27.3635 353.815Z" fill="white" stroke="white" stroke-width="0.5"/>
<path d="M78.5781 366.553L78.5939 366.55L78.6092 366.544C84.6932 364.381 90.0483 362.84 96.8303 362.223L96.833 362.223C99.2471 361.977 101.604 361.83 103.955 361.682C104.565 361.644 105.175 361.605 105.786 361.566C108.745 361.372 111.711 361.139 114.769 360.673C125.169 359.124 135.679 355.706 140.402 347.233L140.402 347.233L140.407 347.223C140.679 346.675 140.927 346.11 141.173 345.55L141.174 345.548C141.421 344.985 141.665 344.43 141.931 343.894C142.463 342.822 143.072 341.85 143.932 341.108L143.939 341.102L143.946 341.095C144.957 340.075 146.227 339.774 147.635 339.698C148.24 339.665 148.861 339.674 149.494 339.684C149.6 339.685 149.707 339.687 149.814 339.688C150.549 339.698 151.297 339.698 152.027 339.62C154.572 339.618 157.119 338.989 159.307 337.729L159.308 337.729L159.314 337.725C160.54 336.969 161.431 335.927 162.278 334.938C162.325 334.883 162.372 334.827 162.42 334.773C163.318 333.725 164.184 332.757 165.387 332.163C166.606 331.562 168.008 331.257 169.477 331.065C170.341 330.951 171.207 330.879 172.068 330.808C172.683 330.757 173.296 330.705 173.904 330.64C177.504 330.329 180.743 329.707 184.335 328.776C185.657 328.476 186.963 328.153 188.26 327.832C193.675 326.493 198.946 325.19 204.688 325.686L204.695 325.686C212.53 326.148 219.394 328.917 225.922 332.354C228.711 333.822 231.434 335.41 234.147 336.992C234.61 337.262 235.073 337.532 235.536 337.801C238.706 339.645 241.873 341.449 245.109 343.002L245.109 343.002L245.118 343.006C246.655 343.67 248.117 343.176 248.904 342.241C249.296 341.774 249.525 341.192 249.5 340.589C249.474 339.983 249.193 339.381 248.612 338.876C239.621 330.18 226.678 322.726 213.368 319.929C206.886 318.374 200.403 318.063 193.919 318.997L193.919 318.997L193.916 318.997C190.825 319.483 187.896 320.206 184.993 320.922C184.181 321.123 183.371 321.323 182.56 321.517C178.845 322.406 175.1 323.175 171.003 323.329L171.001 323.329C167.575 323.485 164.942 324.031 162.619 325.093C160.297 326.155 158.301 327.725 156.139 329.904C154.742 331.261 153.534 331.779 152.196 332.002C151.519 332.115 150.805 332.154 150.004 332.183C149.86 332.188 149.712 332.193 149.561 332.198C148.886 332.221 148.151 332.245 147.343 332.308C144.444 332.31 141.884 332.937 139.683 334.52C137.301 336.104 135.933 338.318 134.678 340.564C134.538 340.814 134.4 341.064 134.262 341.313C133.152 343.322 132.056 345.306 130.333 346.929L130.333 346.929L130.326 346.936C126.443 350.901 120.781 352.439 115.042 353.678C111.921 354.217 108.484 354.487 104.934 354.748C104.714 354.764 104.494 354.78 104.274 354.797C100.933 355.041 97.5041 355.293 94.1736 355.766C87.0838 356.774 80.381 358.795 75.8392 363.964C75.4463 364.309 75.2785 364.698 75.3562 365.094C75.4306 365.473 75.7169 365.783 76.0549 366.013C76.3989 366.246 76.8326 366.422 77.2726 366.519C77.7116 366.617 78.1751 366.64 78.5781 366.553Z" fill="white" stroke="white" stroke-width="0.5"/>
<path d="M574.195 81.4421V81.375L574.161 81.3169C573.928 80.9141 573.476 80.7277 573.093 80.7277C572.899 80.7277 572.698 80.775 572.537 80.8916C572.371 81.0123 572.264 81.1981 572.261 81.4299C571.903 85.45 571.544 89.4831 571.544 93.518C571.544 94.4337 571.455 95.4285 571.366 96.4373L571.365 96.4439C571.276 97.4456 571.185 98.461 571.185 99.4011V99.4065V99.412V99.4174V99.4229V99.4283V99.4337V99.4392V99.4446V99.4501V99.4555V99.461V99.4664V99.4718V99.4773V99.4827V99.4882V99.4936V99.4991V99.5045V99.51V99.5154V99.5208V99.5263V99.5317V99.5372V99.5426V99.5481V99.5535V99.559V99.5644V99.5699V99.5753V99.5808V99.5862V99.5917V99.5971V99.6026V99.608V99.6135V99.6189V99.6244V99.6298V99.6353V99.6408V99.6462V99.6517V99.6571V99.6626V99.668V99.6735V99.679V99.6844V99.6899V99.6954V99.7008V99.7063V99.7117V99.7172V99.7227V99.7281V99.7336V99.7391V99.7446V99.75V99.7555V99.761V99.7664V99.7719V99.7774V99.7829V99.7883V99.7938V99.7993V99.8048V99.8103V99.8157V99.8212V99.8267V99.8322V99.8377V99.8432V99.8487V99.8542V99.8596V99.8651V99.8706V99.8761V99.8816V99.8871V99.8926V99.8981V99.9036V99.9091V99.9146V99.9201V99.9256V99.9311V99.9366V99.9422V99.9477V99.9532V99.9587V99.9642V99.9697V99.9752V99.9808V99.9863V99.9918V99.9973V100.003V100.008V100.014V100.019V100.025V100.031V100.036V100.042V100.047V100.053V100.058V100.064V100.069V100.075V100.08V100.086V100.091V100.097V100.103V100.108V100.114V100.119V100.125V100.13V100.136V100.142V100.147V100.153V100.158V100.164V100.169V100.175V100.181V100.186V100.192V100.197V100.203V100.209V100.214V100.22V100.225V100.231V100.236V100.242V100.248V100.253V100.259V100.265V100.27V100.276V100.281V100.287V100.293V100.298V100.304V100.31V100.315V100.321V100.326V100.332V100.338V100.343V100.349V100.355V100.36V100.366V100.372V100.377V100.383V100.389V100.394V100.4V100.406V100.411V100.417V100.423V100.428V100.434V100.44V100.445V100.451V100.457V100.462V100.468V100.474V100.48V100.485V100.491V100.497V100.502V100.508V100.514V100.52V100.525V100.531V100.537V100.542V100.548V100.554V100.56V100.565V100.571V100.577V100.583V100.588V100.594V100.6V100.606V100.612V100.617V100.623V100.629V100.635V100.64V100.646V100.652V100.658V100.664V100.669V100.675V100.681V100.687V100.693V100.698V100.704V100.71V100.716V100.722V100.728V100.733V100.739V100.745V100.751V100.757V100.763V100.769V100.774V100.78V100.786V100.792V100.798V100.804V100.81V100.815V100.821V100.827V100.833V100.839V100.845V100.851V100.857V100.863V100.869V100.875V100.88V100.886V100.892V100.898V100.904V100.91V100.916V100.922V100.928V100.934V100.94V100.946V100.952V100.958V100.964V100.97V100.976V100.982V100.988V100.994V101V101.006V101.012V101.018V101.024V101.03V101.036V101.042V101.048V101.054V101.06V101.066V101.072V101.078V101.084V101.09V101.096V101.102V101.108V101.114V101.121V101.127V101.133V101.139V101.145V101.151V101.157V101.163V101.169V101.175V101.182V101.188V101.194V101.2V101.206V101.212V101.218V101.225V101.231V101.237V101.243V101.249V101.255V101.262V101.268V101.274V101.28V101.286V101.293V101.299V101.305V101.311V101.317V101.324V101.33V101.336V101.342V101.349V101.355V101.361V101.367V101.374V101.38V101.386V101.392V101.399V101.405V101.411V101.418V101.424V101.43V101.437V101.443V101.449V101.455V101.462V101.468V101.474V101.481V101.487V101.494V101.5V101.506V101.513V101.519V101.525V101.532V101.538V101.545V101.551V101.557V101.564V101.57V101.577V101.583V101.59V101.596V101.602V101.609V101.615V101.622V101.628V101.635V101.641V101.648V101.654V101.661V101.667V101.674V101.68V101.687V101.693V101.7V101.706V101.713V101.719V101.726V101.732V101.739V101.746V101.752V101.759V101.765V101.772V101.778V101.785V101.792V101.798V101.805V101.811V101.818V101.825V101.831V101.838V101.845V101.851V101.858V101.865V101.871V101.878V101.885V101.891V101.898V101.905V101.911V101.918V101.925V101.932V101.938V101.945V101.952V101.959V101.965V101.972V101.979V101.986V101.992V101.999V102.006V102.013V102.02V102.026V102.033V102.04V102.047V102.054V102.061V102.067V102.074V102.081V102.088V102.095V102.102V102.109V102.116V102.122V102.129V102.136V102.143V102.15V102.157V102.164V102.171V102.178V102.185V102.192V102.199V102.206V102.213V102.22V102.227V102.234V102.241V102.248V102.255V102.262V102.269V102.276V102.283V102.29V102.297V102.304V102.311V102.318V102.325V102.332V102.339V102.347V102.354V102.361V102.368V102.375V102.382V102.389V102.397V102.404V102.411V102.418V102.425V102.432V102.44V102.447V102.454V102.461V102.468V102.476V102.483V102.49V102.497C571.185 102.716 571.164 102.936 571.142 103.165L571.14 103.185C571.118 103.403 571.096 103.631 571.096 103.852C571.096 104.29 571.185 104.736 571.562 105.102C571.6 105.225 571.69 105.313 571.781 105.365C571.896 105.432 572.032 105.457 572.152 105.457C572.273 105.457 572.409 105.432 572.523 105.365C572.614 105.313 572.703 105.226 572.742 105.104C573.093 104.781 573.283 104.446 573.38 104.069C573.478 103.69 573.478 103.276 573.478 102.828L573.478 102.807V102.802V102.796V102.791V102.785V102.78V102.774V102.769V102.763V102.758V102.752V102.747V102.741V102.736V102.73V102.725V102.719V102.714V102.708V102.702V102.697V102.691V102.686V102.68V102.674V102.669V102.663V102.658V102.652V102.646V102.641V102.635V102.629V102.624V102.618V102.612V102.607V102.601V102.595V102.59V102.584V102.578V102.573V102.567V102.561V102.555V102.55V102.544V102.538V102.532V102.527V102.521V102.515V102.509V102.504V102.498V102.492V102.486V102.48V102.475V102.469V102.463V102.457V102.451V102.445V102.44V102.434V102.428V102.422V102.416V102.41V102.404V102.399V102.393V102.387V102.381V102.375V102.369V102.363V102.357V102.351V102.345V102.339V102.334V102.328V102.322V102.316V102.31V102.304V102.298V102.292V102.286V102.28V102.274V102.268V102.262V102.256V102.25V102.244V102.238V102.232V102.226V102.22V102.214V102.208V102.202V102.196V102.19V102.184V102.178V102.172V102.166V102.16V102.153V102.147V102.141V102.135V102.129V102.123V102.117V102.111V102.105V102.099V102.093V102.086V102.08V102.074V102.068V102.062V102.056V102.05V102.044V102.038V102.031V102.025V102.019V102.013V102.007V102.001V101.994V101.988V101.982V101.976V101.97V101.964V101.957V101.951V101.945V101.939V101.933V101.927V101.92V101.914V101.908V101.902V101.895V101.889V101.883V101.877V101.871V101.864V101.858V101.852V101.846V101.84V101.833V101.827V101.821V101.815V101.808V101.802V101.796V101.79V101.783V101.777V101.771V101.765V101.758V101.752V101.746V101.739V101.733V101.727V101.721V101.714V101.708V101.702V101.696V101.689V101.683V101.677V101.67V101.664V101.658V101.652V101.645V101.639V101.633V101.626V101.62V101.614V101.607V101.601V101.595V101.588V101.582V101.576V101.57V101.563V101.557V101.551V101.544V101.538V101.532V101.525V101.519V101.513V101.506V101.5V101.494V101.487V101.481V101.475V101.468V101.462V101.456V101.449V101.443V101.437V101.43V101.424V101.418V101.411V101.405V101.399V101.392V101.386V101.38V101.373V101.367V101.36V101.354V101.348V101.341V101.335V101.329V101.322V101.316V101.31V101.303V101.297V101.291V101.284V101.278V101.272V101.265V101.259V101.253V101.246V101.24V101.234V101.227V101.221V101.214V101.208V101.202V101.195V101.189V101.183V101.176V101.17V101.164V101.157V101.151V101.145V101.138V101.132V101.126V101.119V101.113V101.107V101.1V101.094V101.088V101.081V101.075V101.069V101.062V101.056V101.05V101.043V101.037V101.031V101.024V101.018V101.012V101.005V100.999V100.993V100.986V100.98V100.974V100.967V100.961V100.955V100.948V100.942V100.936V100.929V100.923V100.917V100.91V100.904V100.898V100.892V100.885V100.879V100.873V100.866V100.86V100.854V100.847V100.841V100.835V100.829V100.822V100.816V100.81V100.803V100.797V100.791V100.785V100.778V100.772V100.766V100.76V100.753V100.747V100.741V100.734V100.728V100.722V100.716V100.709V100.703V100.697V100.691V100.685V100.678V100.672V100.666V100.66V100.653V100.647V100.641V100.635V100.629V100.622V100.616V100.61V100.604V100.597V100.591V100.585V100.579V100.573V100.567V100.56V100.554V100.548V100.542V100.536V100.53V100.523V100.517V100.511V100.505V100.499V100.493V100.486V100.48V100.474V100.468V100.462V100.456V100.45V100.444V100.437V100.431V100.425V100.419V100.413V100.407V100.401V100.395V100.389V100.383V100.376V100.37V100.364V100.358V100.352V100.346V100.34V100.334V100.328V100.322V100.316V100.31V100.304V100.298V100.292V100.286V100.28V100.274V100.268V100.262V100.256V100.25V100.244V100.238V100.232V100.226V100.22V100.214V100.208V100.202V100.196V100.19V100.184V100.178V100.172V100.166V100.161V100.155V100.149V100.143V100.137V100.131V100.125V100.119V100.113V100.107V100.102V100.096V100.09V100.084V100.078V100.072V100.067V100.061V100.055V100.049V100.043V100.037V100.032V100.026V100.02V100.014V100.008V100.003V99.9969V99.9911V99.9854V99.9796V99.9739V99.9681V99.9624V99.9567V99.9509V99.9452V99.9395V99.9338V99.9281V99.9224V99.9167V99.911V99.9054V99.8997V99.894V99.8884V99.8827V99.8771V99.8714V99.8658V99.8602V99.8545V99.8489V99.8433V99.8377V99.8321V99.8265V99.821V99.8154V99.8098V99.8042V99.7987V99.7931V99.7876V99.7821V99.7765V99.771V99.7655V99.76V99.7545V99.749V99.7435V99.738V99.7325V99.7271V99.7216V99.7162V99.7107C573.478 98.795 573.566 97.8002 573.656 96.7913L573.657 96.7847C573.745 95.7871 573.835 94.7757 573.836 93.8388C574.195 89.8058 574.195 85.7744 574.195 81.4474V81.4421Z" fill="white" stroke="white" stroke-width="0.5"/>
</g>
<defs>
<clipPath id="clip0_268_5693">
<rect width="835" height="614" fill="white"/>
</clipPath>
</defs>
</svg>
